<?xml version="1.0" encoding="UTF-8"?>
<svg width="300" height="300" version="1.1" viewBox="0 0 79.375 79.375" xmlns="http://www.w3.org/2000/svg" xmlns:cc="http://creativecommons.org/ns#" xmlns:dc="http://purl.org/dc/elements/1.1/" xmlns:rdf="http://www.w3.org/1999/02/22-rdf-syntax-ns#">
  <metadata>
    <rdf:RDF>
      <cc:Work rdf:about="">
        <dc:format>image/svg+xml</dc:format>
        <dc:type rdf:resource="http://purl.org/dc/dcmitype/StillImage"/>
        <dc:title/>
      </cc:Work>
    </rdf:RDF>
  </metadata>
  <path d="m37.851 4.8787c15.403-4.2459 27.559 1.0751 36.095 17.061 3.418 11.818 4.561 23.434-3.3062 34.247-15.099 16.769-39.168 20.167-67.367 17.409 0.12393-16.383 6.8214-28.07 15.938-37.086-3.1984-19.504 5.0309-28.128 18.639-31.632z" style="fill:#fff;stroke-linecap:round;stroke-linejoin:round;stroke-width:.26458"/>
  <path d="m15.452 76.97c-0.66861-0.06926-2.7133-0.38242-4.5438-0.6961-1.8305-0.31367-3.359-0.57032-3.3967-0.57032-0.0377 0-0.0685 0.13074-0.0685 0.29054 0 0.43275-0.33645 0.48754-1.55 0.2524-0.60274-0.11672-1.6021-0.19269-2.2208-0.16858-1.3173 0.05118-2.0039-0.21503-2.4278-0.94127-0.179-0.3066-0.36231-0.44336-0.57207-0.42684-0.78391 0.06183-0.84206-0.16655-0.38251-1.5022 0.15605-0.45355 0.27255-1.1233 0.2589-1.4883-0.0729-1.9492 1.0551-7.7208 1.6-8.1867 0.29242-0.24998 1.1468-2.9812 1.1468-3.6659 0-0.44753 0.82786-3.1855 1.2871-4.257 0.2293-0.53495 0.24052-0.64365 0.0665-0.64365-0.73105 0 0.47286-2.4394 3.3341-6.7558 0.9428-1.4223 2.4483-3.4214 2.8285-3.756 0.23549-0.20723 1.3862-1.7574 1.8314-2.4671 0.2097-0.33431 0.49309-0.60916 0.62975-0.61081 0.1444-0.0016 0.46774-0.34623 0.77184-0.82235 0.28785-0.45064 0.91952-1.2904 1.4037-1.8661 0.70375-0.83677 0.84704-1.087 0.71421-1.247-0.12973-0.15625-0.1004-0.28382 0.13372-0.58145 0.16493-0.20968 0.29988-0.46661 0.29988-0.57091 0-0.18176 1.1525-1.6916 1.5179-1.9886 0.13808-0.11216 0.11999-0.35919-0.0839-1.1464-0.3645-1.4071-0.575-3.2996-0.57548-5.1737-2.9e-4 -0.91226-0.0619-1.6385-0.14341-1.6889-0.19832-0.12264-0.17864-0.72997 0.0525-1.6212 0.1463-0.56402 0.15909-0.92308 0.0507-1.4256-0.10177-0.47206-0.0949-1.033 0.0232-1.8873 0.0924-0.6686 0.1933-1.6351 0.22422-2.1477 0.0611-1.0129 0.20607-1.744 0.36822-1.8568 0.0565-0.03936 0.57986-1.0047 1.163-2.1453 1.5504-3.0327 2.1501-3.9743 3.4294-5.3846 0.88096-0.97115 1.4866-1.4759 2.6023-2.1688 1.8392-1.1422 6.264-3.3324 7.6873-3.805 1.2809-0.42532 3.4314-0.79603 4.6361-0.79921 0.47196-0.00144 1.373-0.12939 2.0023-0.28492 0.66376-0.16402 1.6358-0.28336 2.3152-0.28436 0.64407-0.00144 1.6094-0.10473 2.1453-0.23079 1.1762-0.27655 2.6364-0.1926 4.2849 0.24639 1.8536 0.49362 1.7389 0.49128 1.7914 0.036318 0.0662-0.57395 0.57048-0.80186 1.5456-0.69855 0.93008 0.09848 3.2985 0.86993 4.7975 1.5625 0.66065 0.30525 1.2815 0.49171 1.6216 0.48701 0.60349-0.00845 0.74595 0.069764 2.7179 1.4912 0.73683 0.5311 1.4453 0.96564 1.5744 0.96564 0.12903 0 0.55591 0.16385 0.94859 0.36421l0.71396 0.36421-0.42905-0.36649c-0.23598-0.20157-1.105-0.78708-1.9311-1.3011-1.3727-0.85411-3.0516-2.2072-2.7387-2.2072 0.0713 0 0.21544 0.10321 0.32023 0.22956 0.27434 0.33054 1.5955 1.2028 2.9159 1.9251 0.62734 0.34318 1.464 0.94591 1.8592 1.3394 0.7351 0.73189 1.3013 1.116 2.9354 1.9913 1.4176 0.75939 1.6546 1.0367 0.33054 0.38674-1.1503-0.56465-1.1729-0.56939-1.2689-0.26679-0.0804 0.25341 0.0818 0.47498 0.91407 1.2486 0.55651 0.51728 1.3093 1.1946 1.6728 1.5052 0.36356 0.31058 0.82892 0.85762 1.0342 1.2156 0.20523 0.35804 0.61156 0.9152 0.90295 1.2382 0.64927 0.71963 0.87095 1.1172 0.76981 1.3808-0.0439 0.11436 0.48785 0.96649 1.2336 1.9769 2.5515 3.457 3.5993 5.1636 4.0757 6.6384 0.17785 0.55063 0.3286 0.92069 0.335 0.82237 6e-3 -0.09831 0.13903-0.17878 0.29475-0.17878 0.3777 0 0.82377 0.89176 1.0937 2.1864 0.1159 0.55579 0.2496 1.0735 0.29714 1.1504 0.048 0.0777 0.013 0.09443-0.0787 0.03784-0.26806-0.16571-0.19784 0.64828 0.10761 1.2474 0.15563 0.30524 0.30229 0.4564 0.34154 0.35203 0.0378-0.10068 0.034 0.10051-8e-3 0.44679-0.052 0.42344-0.0277 0.59909 0.074 0.53623 0.10384-0.06419 0.1271 0.25898 0.0742 1.0305-0.0521 0.75976-0.0245 1.1565 0.085 1.2242 0.26885 0.16622 0.18147 1.6311-0.19677 3.2986-0.43918 1.9362-0.44994 2.3045-0.0702 2.4038 0.62311 0.16301 0.32663 1.2262-2.1766 7.8062-0.84444 2.2197-0.97416 2.6749-0.83592 2.9332 0.21739 0.40618-0.0252 1.0815-1.1861 3.3012-1.1976 2.29-2.4959 4.3672-2.7295 4.3672-0.19034 0-0.93793 0.87868-0.93793 1.1024 0 0.23573-4.3344 4.4945-5.1278 5.0382-0.44412 0.30441-1.258 0.91735-1.8086 1.3621-0.55063 0.44476-1.4516 1.1066-2.0023 1.4708-0.55062 0.36423-1.4288 1.0369-1.9514 1.4948-1.0498 0.91983-2.4715 1.8311-2.8568 1.8311-0.13667 0-0.34207-0.09358-0.45644-0.20794-0.18192-0.18194-0.29942-0.15963-0.93863 0.17877-0.45098 0.23868-0.73114 0.48243-0.73189 0.63674-2e-3 0.33188-1.158 1.052-2.1465 1.3367-0.43263 0.12466-1.1826 0.38128-1.6667 0.57037-0.48405 0.18909-1.6747 0.53914-2.6458 0.77787-0.97115 0.23877-2.5702 0.75113-3.5535 1.1386-2.9835 1.1758-7.7824 2.2334-11.656 2.5689-0.94392 0.08176-4.8579 0.21284-8.6978 0.2913-5.8311 0.11926-7.0324 0.17829-7.29 0.3587-0.3361 0.23542-0.33382 0.23535-2.104 0.0522zm-4.0434-4.7128c-0.21176-0.05659-0.9493-0.13818-1.639-0.18105l-1.254-0.07804 1.5017 0.25461c1.3954 0.23659 2.2697 0.23941 1.3912 0.0051zm-5.2915-1.2166c-0.0475-0.04747-0.17088-0.05253-0.27412-0.01183-0.11409 0.04561-0.0802 0.07956 0.0864 0.08649 0.15076 0.0067 0.23523-0.02753 0.18771-0.07517zm14.457-0.40851c0.8162 0.06385 1.308 0.04763 1.3653-0.04527 0.0493-0.07973-4e-3 -0.1808-0.11764-0.22453-0.11398-0.04375-0.33579-0.3315-0.4929-0.63946-0.15711-0.30797-0.43641-0.74552-0.62066-0.97235-0.18425-0.22682-0.45963-0.70201-0.61195-1.056-0.15231-0.35397-0.34715-0.70794-0.43297-0.78661-0.21788-0.1997-1.3194-2.6455-1.7141-3.8059-0.75236-2.212-0.85261-5.305-0.21465-6.6229 0.17929-0.37037 0.33479-0.84853 0.34556-1.0626 0.0189-0.37534 0.83653-1.6353 1.3235-2.0394 0.18523-0.15372 0.17003-0.06571-0.0698 0.40443-0.18579 0.36417-0.30724 0.87081-0.30827 1.286-1e-3 0.37676-0.0927 1.0268-0.20385 1.4444-0.17309 0.65029-0.17338 0.77049-2e-3 0.83625 0.13073 0.05017 0.19505 0.28284 0.18544 0.67076-8e-3 0.32666 0.0901 1.1655 0.21822 1.8641 0.12813 0.69858 0.23295 1.4226 0.23295 1.609 0 0.18634 0.0501 0.33882 0.11131 0.33882 0.12004 0 0.52735 1.3022 0.68527 2.1909 0.0534 0.30042 0.21778 0.6216 0.36533 0.71375 0.14755 0.09223 0.26826 0.285 0.26826 0.42856 0 0.39867 0.26901 0.82108 0.98872 1.5525 0.71073 0.72232 1.2996 1.5912 1.2996 1.9175 0 0.1125 0.0746 0.20461 0.16585 0.20461 0.0912 0 0.53694 0.35397 0.99051 0.78661 0.95885 0.9146 0.90211 0.90647 4.3236 0.61978 1.3863-0.11622 2.0634-0.12162 2.2295-0.01791 0.13118 0.08192 1.0085 0.17307 1.9495 0.20257l1.711 0.05355 0.0874-0.64358c0.16906-1.2455 0.84192-3.2028 1.224-3.5606 0.32038-0.30004 0.33721-0.35882 0.1351-0.47191-0.60327-0.3376-0.0506-2.0135 1.0114-3.067 0.4249-0.42154 0.84097-0.76642 0.92459-0.76642 0.0836 0 0.1162-0.09341 0.0724-0.20753-0.0438-0.11419 0.0298-0.33253 0.16347-0.4853 0.38134-0.43574 3.167-2.1521 3.8106-2.3479 0.70717-0.21515 5.4763-0.16689 6.2292 0.06301 1.3018 0.39752 2.8087 1.292 3.7542 2.2285 0.95157 0.94252 1.1285 1.2432 0.79647 1.3539-0.11772 0.03919-0.0744 0.25159 0.14302 0.70066 0.17155 0.35439 0.31397 0.86537 0.31647 1.1355 4e-3 0.44924 0.0215 0.46885 0.20263 0.22981 0.33878-0.44699 0.69224-2.367 0.60759-3.3006-0.10911-1.2033-0.94352-2.8122-1.7961-3.4632-0.4062-0.31015-0.67726-0.43355-0.73766-0.33581-0.0624 0.10085-0.33885 0.01183-0.79721-0.25561l-0.7017-0.41014-2.5743 0.09679c-1.9174 0.07213-3.0123 0.1896-4.2905 0.46037-2.2054 0.46713-3.6192 0.9359-3.7138 1.2314-0.0407 0.1272-0.68721 0.80008-1.4366 1.4952-0.74937 0.69514-1.466 1.4674-1.5925 1.7162-0.12648 0.24882-0.56712 0.87071-0.97917 1.382-0.41205 0.5113-0.92555 1.2192-1.1411 1.5732-0.44686 0.7338-3.1655 3.4324-3.4579 3.4324-0.1062 0-0.19309-0.04932-0.19309-0.1098 0-0.16182-1.1937-0.09341-1.5322 0.08784-0.16012 0.08564-0.73362 0.17395-1.2744 0.19612-0.8626 0.0353-0.98086 0.01013-0.96344-0.20997 0.011-0.13767 0.0105-0.25029-1e-3 -0.25029s-0.22789-0.05946-0.48099-0.13193c-0.32421-0.09291-0.45071-0.08497-0.42811 0.0272 0.0176 0.08767-0.0834 0.18441-0.22446 0.21517-0.17266 0.03767-0.62833-0.32191-1.3939-1.0999-0.62548-0.63569-1.19-1.1558-1.2545-1.1558-0.22717 0-1.4571-1.343-1.4571-1.5911 0-0.13818-0.0644-0.29103-0.14302-0.33964-0.0787-0.04865-0.13894-0.22939-0.13396-0.40172 9e-3 -0.2999 0.015-0.29833 0.1488 0.03649 0.18597 0.46564 1.0766 1.5426 1.4337 1.7337 0.27488 0.14713 0.27726 0.1375 0.0672-0.26863-0.11978-0.23162-0.35563-0.92784-0.52411-1.5471-0.25602-0.9411-0.29202-1.3547-0.21927-2.5196 0.0746-1.194 0.15353-1.5222 0.55118-2.2914 0.25528-0.49378 0.55127-1.1084 0.65775-1.3659 0.10649-0.25745 0.33173-0.55049 0.50056-0.6512 0.16884-0.10068 0.71453-0.42684 1.2127-0.72475 1.1657-0.69713 2.0853-0.93473 3.6258-0.93683 1.3735-0.0016 1.9689 0.1554 2.0713 0.54726 0.0373 0.14274 0.24914 0.36659 0.4707 0.49747 0.66737 0.39422 1.2624 1.1871 1.4916 1.9875 0.66951 2.3382 0.77574 3.5915 0.33396 3.9404-0.0962 0.07601-0.33589 0.1737-0.53254 0.21708-0.19665 0.04341-0.91556 0.30789-1.5976 0.58779-1.083 0.44444-1.297 0.48905-1.6897 0.35216-0.24732-0.08615-0.67922-0.11942-0.95979-0.07399-0.81575 0.13243-1.4004-0.19926-1.8236-1.0345-0.2588-0.51071-0.30439-0.69777-0.15621-0.64091 0.11508 0.04426 0.24768 0.2014 0.29466 0.34941 0.10478 0.33017 0.80816 0.84861 1.1513 0.84861 0.18404 0 0.10953-0.12534-0.27621-0.46482-0.5357-0.47137-1.0926-1.6821-1.0926-2.3753 0-0.28718 0.034-0.31308 0.21452-0.16334 0.11799 0.09797 0.21453 0.26399 0.21453 0.36904 0 0.10507 0.25056 0.45439 0.5568 0.77632 0.55066 0.57885 0.56681 0.58483 1.4659 0.54233l0.90914-0.04291 0.31557-0.64358c0.17356-0.35397 0.35604-0.96537 0.40552-1.3587l0.09-0.71508-0.69156-0.5198c-0.82718-0.62172-2.574-1.0549-3.1932-0.79186-0.78851 0.33493-1.7335 1.1565-2.298 1.9978-0.58234 0.86796-0.59346 0.90735-0.51775 1.8332 0.0426 0.52041 0.17839 1.188 0.30184 1.4834 0.38409 0.91924 1.6552 2.3553 2.4357 2.7517 0.6483 0.32924 0.79649 0.35032 1.7162 0.24398 0.55366-0.06402 1.3606-0.1255 1.7932-0.13665 0.76097-0.01961 0.81469-0.04831 1.6488-0.8802 0.47419-0.47296 1.0212-1.1757 1.2156-1.5616 0.87666-1.74 1.7607-3.0631 2.4976-3.7381 0.43324-0.39681 0.78771-0.81595 0.78771-0.93144 0-0.35777 0.99282-1.5382 1.2937-1.5382 0.15372 0 0.27949 0.09476 0.27949 0.2105 0 0.16486 0.14431 0.13378 0.66488-0.14307 0.36569-0.19444 0.75344-0.35353 0.86168-0.35353s0.64409-0.22525 1.1908-0.50056c1.0661-0.53689 1.4106-0.64265 0.87788-0.26949-0.55347 0.38769-0.1426 0.52652 0.60712 0.20513 1.1654-0.49952 2.3992-0.75334 3.8782-0.7978 1.8302-0.05507 3.5307-0.31927 3.7349-0.58044 0.0877-0.11216 0.66221-0.3325 1.2767-0.48966 0.61448-0.15709 1.4663-0.48277 1.893-0.72356 0.42668-0.2408 0.80961-0.40399 0.85097-0.36264 0.10561 0.10558 0.82048-0.27561 1.8266-0.97407 0.47196-0.32762 1.0281-0.66892 1.2358-0.75845 0.2077-0.08953 0.62359-0.45696 0.92415-0.81656 0.35274-0.42198 0.62702-0.62823 0.77359-0.58172 0.15637 0.04966 0.55159-0.32884 1.2694-1.2156 0.57327-0.70824 1.0921-1.2877 1.153-1.2877 0.0609 0 0.70098-1.1745 1.4224-2.6101 1.0635-2.1163 1.3903-2.9245 1.7274-4.272 0.22867-0.91406 0.37993-1.799 0.33612-1.9665-0.0438-0.16756-0.0144-0.30459 0.0657-0.30459 0.14172 0 0.54109-1.5727 0.65372-2.5743 0.0309-0.2753 0.0805-0.59709 0.1101-0.71508 0.0343-0.13666-0.0493-0.21463-0.23032-0.21478-0.37799 0-0.4489-0.44236-0.10084-0.62865 0.15172-0.08125 0.3199-0.10355 0.37374-0.04983 0.0538 0.05389 0.0597-0.0016 0.0132-0.12297-0.0466-0.12145-0.22702-0.21606-0.40087-0.21017-0.2491 0.0084-0.32539-0.08024-0.35999-0.41831-0.0241-0.23598-0.17112-0.9761-0.32663-1.6447-0.34561-1.4862-1.0065-2.5539-1.9519-3.1534-0.73376-0.46534-1.2199-0.58297-0.84027-0.20334 0.2334 0.23338 0.16523 0.64154-0.10626 0.63627-0.0899-0.0017-0.32437-0.12905-0.52102-0.28287-0.23344-0.1826-0.58357-0.28076-1.0088-0.28286-0.38813-0.0017-0.93707-0.14122-1.3587-0.34486-0.38906-0.18794-1.2866-0.42927-1.9946-0.53632l-1.2872-0.19463-0.65939 0.40226c-0.36265 0.22125-1.0706 0.54313-1.5732 0.71525-0.70005 0.23976-0.91722 0.37985-0.92838 0.59885-8e-3 0.15726-0.14471 0.54331-0.30383 0.85796-0.30246 0.59814-0.30249 0.485 1e-3 3.7755 0.0174 0.18868-0.0407 0.36833-0.12915 0.39922-0.21598 0.07551-1.0549-0.64274-1.0549-0.90306 0-0.11385-0.10505-0.36718-0.23345-0.56314-0.17022-0.25978-0.20981-0.5288-0.14615-0.99319 0.0753-0.54946 0.0403-0.68152-0.2552-0.9616l-0.34252-0.32469 0.28061-0.74145c0.51728-1.3668 3.2432-3.4423 4.9307-3.7543 1.2043-0.22262 3.28-0.19787 3.5198 0.04189 0.10684 0.10693 0.54587 0.23022 0.97559 0.27414 0.42971 0.04392 0.92609 0.12483 1.1031 0.17992 0.24229 0.07534 0.32179 0.04307 0.32179-0.13108 0-0.38424 0.22272-0.26824 1.0663 0.55539 0.83454 0.81478 1.0113 0.91084 1.1182 0.60784 0.047-0.13311 0.18679-0.10963 0.54823 0.09257 0.74156 0.4148 0.96016 0.64676 1.142 1.2118 0.2392 0.74324 0.32732 0.82112 1.615 1.427 0.63833 0.30037 1.596 0.88118 2.1282 1.2907 0.7861 0.60488 0.98418 0.70156 1.0557 0.51522 0.0484-0.12618 0.0122-0.39596-0.0806-0.59956-0.11622-0.25507-0.12265-0.4162-0.0207-0.51818 0.10197-0.10203 0.19789-0.0051 0.30847 0.31237 0.12845 0.36848 0.19984 0.42769 0.35772 0.29667 0.22299-0.18507 0.29299-0.06672 0.38759 0.6551 0.0493 0.37623 0.0589 0.36243 0.0777-0.11199 0.0116-0.29758 0.17613-0.84637 0.3652-1.2195l0.34377-0.6784-0.54818-1.1403c-0.3015-0.62716-0.49653-1.1933-0.43342-1.2581 0.14914-0.15304 0.64599 0.66508 0.87497 1.4407 0.15836 0.53637 0.42022 0.83402 0.42022 0.47765 0-0.07162 0.25655-0.45476 0.57014-0.85147 0.31356-0.39669 0.54234-0.80471 0.50836-0.90669-0.034-0.10203-0.19673-0.65203-0.36167-1.2223-0.22592-0.78112-0.36202-1.0369-0.55176-1.0369-0.13853 0-0.37906-0.22255-0.5345-0.49456-0.51448-0.9002-2.9843-3.653-3.2775-3.653-0.094 0-0.71178-0.33956-1.3728-0.75458-1.3162-0.82634-3.0736-1.3906-4.634-1.4878-2.3241-0.14476-3.8475-0.35368-4.8103-0.65943-0.9767-0.31015-1.1204-0.32181-1.843-0.14932-1.8786 0.44851-4.0429 0.76355-4.2223 0.61464-0.23596-0.19584-0.79062-0.05473-1.853 0.4712-1.6722 0.82792-4.7162 4.3178-6.1144 7.0101-0.78854 1.5183-1.0094 2.3916-1.0209 4.0368-0.0122 1.734 0.38712 2.9854 1.0348 3.2436 0.20887 0.08328 0.30662 0.17882 0.21722 0.21235-0.29716 0.11148 0.9049 2.7653 1.2525 2.7653 0.0733 0 0.41017 0.27698 0.74871 0.61552 0.50659 0.50657 0.89188 0.71241 2.1773 1.1632 0.85896 0.30125 1.8731 0.70397 2.2537 0.89495 0.6798 0.34118 0.7075 0.34334 1.5823 0.12399 0.48973-0.1228 1.1116-0.22356 1.3818-0.22385 0.50272 0 1.421-0.45672 1.421-0.70591 0-0.07618 0.32778-0.57593 0.72839-1.1105 0.40062-0.53454 0.892-1.2498 1.092-1.5895 0.35456-0.60232 0.35963-0.64845 0.20481-1.8592-0.35914-2.8085-0.35628-2.7596-0.20552-3.5133l0.1111-0.55544 0.59198 0.64233c0.33457 0.363 0.63387 0.85331 0.68828 1.1275 0.16347 0.82362 0.39737 1.2932 0.69997 1.4051 0.26692 0.09882 0.29174 0.24049 0.31137 1.7783l0.0213 1.671-0.76317 1.1466c-0.41975 0.63064-0.76317 1.1754-0.76317 1.2105 0 0.03513-0.0955 0.17716-0.21229 0.31572-0.11675 0.13852-0.519 0.71416-0.89386 1.2791-0.62123 0.93626-1.5402 1.839-3.875 3.8067-0.41872 0.35285-0.7594 0.52836-0.97166 0.50056-0.21416-0.02804-0.56186 0.15439-1.0084 0.52924-0.83379 0.69992-1.7299 1.3587-1.8482 1.3587-0.0483 0-0.41355 0.16368-0.81177 0.36367-0.39822 0.20002-0.81235 0.32978-0.92029 0.28836-0.10794-0.04139-0.30633-0.01352-0.44088 0.06115-0.29641 0.16537-3.228 0.7223-3.8235 0.72638-0.23409 0.0016-0.65789-0.038-0.94178-0.08801-0.4345-0.07652-0.52772-0.04679-0.58921 0.18841-0.0994 0.37995-1.0763 0.4653-3.5004 0.30578-2.1958-0.14442-3.6525-0.41831-4.881-0.9175-0.48205-0.19586-0.99036-0.35569-1.1296-0.35513-0.13922 0-0.85447-0.1375-1.5894-0.30677-1.0855-0.24998-1.5419-0.44417-2.4313-1.0345-0.60224-0.39971-1.2881-0.81199-1.524-0.91618-0.23598-0.10422-0.67985-0.42748-0.98638-0.71845s-0.51641-0.45588-0.46638-0.36645c0.05 0.08936 7e-3 0.23243-0.0961 0.3178-0.22348 0.18549-1.0686-0.6377-1.8147-1.7675-0.2597-0.39331-0.83918-1.1026-1.2877-1.5761-0.44856-0.47355-0.95444-1.1332-1.1242-1.4659-0.16974-0.33272-0.36354-0.60493-0.43068-0.60493-0.1375 0-1.7742 1.4077-2.2677 1.9504-0.23235 0.25552-0.32179 0.53054-0.32179 0.98949 0 0.34958 0.0575 0.63559 0.12772 0.63559 0.19923 0 0.28536 0.33906 0.4466 1.7579 0.0823 0.72432 0.18287 1.469 0.22348 1.6548 0.0687 0.31428 0.0916 0.32176 0.32861 0.10726 0.28856-0.26115 0.672-0.30171 0.80578-0.0853 0.0494 0.0799 0.14975 0.10828 0.22297 0.06301 0.42807-0.26455-0.25077 0.71056-1.9457 2.795-1.0988 1.3512-1.3999 1.8116-1.2955 1.9805 0.0455 0.07365-0.14591 0.51086-0.42534 0.97166-0.71947 1.1865-1.5244 2.8865-1.435 3.031 0.0415 0.06723-0.057 0.47007-0.21895 0.89527-0.52956 1.3902-1.1257 3.8907-1.2754 5.3496-0.0807 0.78659-0.18067 1.5589-0.22213 1.7162-0.0564 0.21388-0.0407 0.23591 0.062 0.08733 0.0906-0.13108 0.15826 0.79346 0.19877 2.7174 0.0365 1.7319 0.12824 3.0757 0.226 3.3093 0.11554 0.27606 0.11848 0.39329 0.01 0.39329-0.0851 0-0.11774 0.09662-0.0725 0.21453 0.0453 0.11791 0.02 0.21453-0.0562 0.21453s-0.13853 0.06436-0.13853 0.14307c0 0.07872 0.0973 0.14307 0.21608 0.14307 0.11885 0 0.51686 0.14138 0.88448 0.31419 0.47296 0.22231 0.68508 0.26414 0.72545 0.14307 0.0804-0.24128 0.41562-0.213 0.51399 0.04341 0.10791 0.2812 0.52036 0.27764 0.52036-0.0051 0-0.12044 0.0965-0.25605 0.21452-0.30133 0.30931-0.11875 0.27683-1.2964-0.0635-2.3037-0.42817-1.2671-0.47211-1.9813-0.22224-3.6117 0.12659-0.82593 0.2549-1.7591 0.28515-2.0738 0.18033-1.8758 0.37266-2.4112 1.7722-4.9341l0.43636-0.78659-0.0859 0.57206c-0.0473 0.31464-0.22783 1.3281-0.40126 2.2521-0.17343 0.92402-0.29059 1.7047-0.26036 1.735 0.0302 0.03024 0.0684 0.88988 0.0848 1.9103 0.0225 1.3984 0.0824 1.9201 0.24344 2.1182 0.12366 0.1522 0.13832 0.21764 0.0348 0.15541-0.0983-0.05912-0.17878-0.03919-0.17878 0.04409s0.0965 0.15152 0.21453 0.15152c0.12124 0 0.21453 0.12804 0.21453 0.29448 0 0.16199 0.0483 0.2649 0.10726 0.22874 0.1536-0.09409 0.16189 0.9615 8e-3 1.0621-0.0743 0.04865-0.0688 0.34576 0.0132 0.71022 0.0774 0.34461 0.10527 1.0149 0.0619 1.4895-0.0685 0.74929-0.0365 0.91651 0.24322 1.2691 0.22157 0.27931 0.41855 0.38763 0.63105 0.34699 0.16992-0.03243 0.39156 0.02939 0.49253 0.1375 0.1383 0.14797 0.23163 0.15659 0.37827 0.03497 0.13348-0.11081 0.59572-0.13024 1.4704-0.06182zm-7.0083-1.033c0.10325-0.04139 0.2266-0.03632 0.27412 0.01183 0.0475 0.04747-0.0369 0.08142-0.18771 0.07517-0.1666-0.0067-0.2005-0.04071-0.0864-0.08649zm7.8928-6.4939c-0.30802-0.25194-0.31408-0.27122-0.0437-0.13902 0.17261 0.08429 0.35339 0.21738 0.40174 0.29562 0.12909 0.20887 0.0424 0.17094-0.35802-0.15659zm43.861-33.97c0.0419-0.10912 0.16576-0.19834 0.27534-0.19834 0.29724 0 0.24055 0.24188-0.0761 0.3247-0.19315 0.05051-0.25261 0.01352-0.19923-0.12635zm-50.118 41.468c-0.0983-0.0397-0.25922-0.0397-0.35754 0-0.0983 0.0397-0.0179 0.07213 0.17877 0.07213 0.19665 0 0.2771-0.03243 0.17877-0.07213zm20.988-0.47287c0-0.1915-0.0686-0.25522-0.21453-0.19922-0.11799 0.04527-0.21453 0.17198-0.21453 0.28155 0 0.10963 0.0965 0.19922 0.21453 0.19922 0.11804 0 0.21453-0.12669 0.21453-0.28155zm2.9619 0.05642c0.29794-0.0598 0.31461-0.13108 0.29073-1.2421-0.0209-0.97294 0.0333-1.3034 0.31039-1.8937 0.18466-0.3933 0.46146-0.98789 0.61512-1.3213 0.15367-0.33341 0.57267-0.86438 0.93112-1.1799 0.35846-0.31552 0.6073-0.57368 0.55299-0.57368-0.49192 0-1.9845 1.399-2.4472 2.2938-0.13639 0.26373-0.25786 0.6761-0.26994 0.91635-0.014 0.27894-0.0979 0.43682-0.23214 0.43682-0.34537 0-0.20044-1.1413 0.27359-2.1542 0.80548-1.7213 1.7724-2.7658 3.1961-3.4526 0.79057-0.38138 1.9694-0.45461 1.9694-0.1223 0 0.11334-0.0805 0.25814-0.17877 0.32179-0.0986 0.06385 0.6607 0.1478 1.6939 0.18735 1.8257 0.06976 1.8998 0.08547 2.9552 0.62108 1.2398 0.62928 1.5655 0.93691 1.8407 1.7386l0.19639 0.57208 0.0452-0.63211c0.0642-0.89791-0.0439-1.1996-0.65917-1.8399-0.63425-0.66012-1.1721-0.95816-1.9446-1.0775-0.306-0.0473-0.78869-0.23838-1.0726-0.42466-0.53163-0.34877-2.2792-0.67605-3.5912-0.67253-0.85377 0.0016-1.8982 0.33113-2.7135 0.85429-1.1515 0.7389-1.5227 1.3043-2.7243 4.15-0.84975 2.0123-0.89063 2.3802-0.48776 4.3887 0.064 0.31922 0.30223 0.33659 1.4505 0.10574zm1.0426-1.1252c0-1.0548-0.17413-1.517-0.33933-0.90069-0.0472 0.1761-0.0867 0.69024-0.0878 1.1425-2e-3 0.6365 0.0465 0.82235 0.21258 0.82235 0.17147 0 0.21452-0.21358 0.21452-1.0642zm-31.178 0.44746c0-0.15659-0.59896-1.2422-0.73012-1.3233-0.0881-0.05439-0.6279-0.73382-1.1996-1.5097l-1.0394-1.4107-0.14493 0.571c-0.13098 0.51601-0.11885 0.57101 0.1259 0.57101 0.34138 0 0.35069 0.37902 0.0426 1.7338-0.12556 0.55203-0.18597 1.046-0.13424 1.0977 0.1639 0.16385 3.0799 0.41973 3.0799 0.2702zm36.791-1.1886c1.868-0.54095 3.3962-1.0479 3.3959-1.1266-2.6e-4 -0.07872-0.0651-0.37559-0.1441-0.65983-0.11509-0.41429-0.31353-0.62172-1.0003-1.0456-0.47123-0.29086-0.85678-0.58414-0.85678-0.65172 0-0.06757-0.19317-0.16537-0.42929-0.2172-0.53994-0.11858-1.5368 0.20134-3.1729 1.0183-1.0005 0.49956-1.3306 0.74856-1.6955 1.2788-0.42262 0.61426-0.44627 0.7129-0.35224 1.469 0.0554 0.44581 0.13409 0.86488 0.17478 0.93128 0.0962 0.15693 0.10524 0.15473 4.0805-0.99644zm-35.115-1.3034c-0.0329-0.21738-0.0606-0.07348-0.0617 0.31983-1e-3 0.39331 0.0258 0.57118 0.0598 0.39527 0.034-0.1759 0.0348-0.49768 2e-3 -0.7151zm17.45 0.59098c-0.0475-0.04747-0.17088-0.05253-0.27412-0.01183-0.11408 0.04561-0.0802 0.07956 0.0864 0.08649 0.15076 0.0067 0.23524-0.02753 0.18771-0.07517zm1.6119-0.34265c0.16982-0.1098 0.14-0.13868-0.14302-0.13868-0.19665 0-0.45408 0.06233-0.57208 0.13868-0.16981 0.1098-0.13999 0.13868 0.14303 0.13868 0.19665 0 0.45408-0.06233 0.57207-0.13868zm-19.949-3.8032c0.0991-0.8187 0.0831-0.89218-0.26401-1.2157-0.20321-0.18936-0.53409-0.78279-0.73529-1.3187-0.2012-0.53593-0.53347-1.3053-0.73839-1.7097l-0.37258-0.73525-0.42604 1.1376c-0.23432 0.62569-0.5157 1.71-0.6253 2.4096-0.19466 1.2426-0.19185 1.2839 0.12147 1.7877l0.32072 0.51571 0.0429-0.82235c0.0236-0.4523 0.0941-0.82235 0.15661-0.82235 0.24761 0 0.56722 0.5301 0.64672 1.0726l0.0838 0.57206-0.2505-0.64358-0.2505-0.64358-0.044 0.53027c-0.0242 0.29166 0.0293 0.66721 0.11885 0.8346 0.20511 0.38324 0.0665 0.53527-0.28688 0.31458-0.25055-0.15642-0.2602-0.13919-0.13044 0.23299 0.15728 0.45118 0.74481 1.0637 1.7012 1.7737l0.64358 0.47775 0.0913-1.4384c0.0502-0.7911 0.13879-1.8305 0.1968-2.3097zm18.09 2.8021c0-0.07872-0.1571-0.14307-0.34911-0.14307-0.192 0-0.38888 0.06436-0.43749 0.14307-0.0516 0.08345 0.0939 0.14308 0.3491 0.14308 0.24063 0 0.4375-0.06436 0.4375-0.14308zm5.4677-1.2077c0.10386-0.1928-0.0319-0.13412-0.44286 0.19133-0.32596 0.25816-0.55338 0.53292-0.50538 0.61059 0.097 0.1571 0.71167-0.36274 0.94824-0.80193zm7.9942 0.2423c0.1779-0.22684 0.17284-0.23188-0.054-0.05405-0.23823 0.18684-0.31399 0.30429-0.19629 0.30429 0.0297 0 0.14234-0.11267 0.25029-0.25029zm16.934-1.2909c-0.0419-0.10912-0.0762-0.26503-0.0762-0.34642 0-0.08142-0.12867-0.11436-0.2859-0.07331-0.15724 0.04105-0.32031 0.01908-0.36239-0.04898-0.10595-0.17142 0.24101-0.69512 0.51897-0.78333 0.39839-0.12652 0.55841-0.75377 0.55697-2.1834-2e-3 -1.7162-0.27837-2.388-1.5524-3.7694-0.48266-0.52335-0.87755-1.0143-0.87755-1.0909 0-0.07669-0.14479-0.23782-0.32179-0.35813-0.29326-0.19932-0.29936-0.22768-0.0689-0.31976 0.13906-0.05558 0.43775-0.0245 0.66373 0.06909 0.53522 0.22169 2.7304 2.4326 2.7304 2.7499 0 0.13446 0.0816 0.2961 0.18121 0.359 0.22806 0.14392 0.53388 1.3029 0.53388 2.0233 0 0.93576 0.22755 0.90074 1.3335-0.20524l0.67775-0.67775-0.25479-0.63233c-0.37712-0.93589-2.9095-3.4661-4.021-4.0175-0.47287-0.23461-0.88638-0.39998-0.91889-0.36747-0.0325 0.03243-0.0692-0.19848-0.0816-0.51334-0.0245-0.62488 0.21401-0.76417 0.56584-0.33046 0.16654 0.20532 0.16638 0.22397-1e-3 0.12314-0.13289-0.08007-0.17723-0.05862-0.13576 0.06588 0.0339 0.10152 0.3479 0.25897 0.69788 0.34976 1.1325 0.29375 1.7062 0.66796 3.3307 2.1727 0.87792 0.81316 1.6445 1.4789 1.7035 1.4794 0.11537 0.0013 0.17002-0.43677 0.12204-0.9776-0.031-0.34914 1.0767-1.9337 2.0154-2.883 0.85869-0.86843 2.5948-1.7488 4.2364-2.1482l1.4815-0.36046 0.48806-1.2624c0.26843-0.69432 0.48805-1.2972 0.48805-1.3398 0-0.24681-2.0506 0.18564-3.4015 0.71735-0.84296 0.33177-1.6204 0.59312-1.7275 0.58079-0.73485-0.08463-3.8784 1.9586-4.5828 2.9786-0.37548 0.54372-0.87151 0.73091-0.87151 0.32888 0-0.3513 0.379-1.1625 1.0568-2.2619 0.50199-0.81427 0.61592-1.1161 0.55853-1.4794-0.0396-0.25106 0.0267-0.73375 0.14755-1.0726 0.12081-0.33888 0.25225-1.0023 0.29211-1.4743l0.0725-0.85811-0.44979 0.57206c-0.24738 0.31464-0.79714 0.92605-1.2217 1.3587-0.42455 0.43262-0.90505 0.97966-1.0678 1.2156-0.16274 0.23598-0.9122 1.0474-1.6655 1.8032-1.312 1.3163-2.4816 2.1336-3.3351 2.3304-0.21577 0.04966-0.7764 0.33868-1.2458 0.64211-0.46945 0.30341-1.3709 0.73177-2.0032 0.95189-1.176 0.40941-1.3549 0.55237-0.87962 0.70321 0.14855 0.04713 0.42893 0.23292 0.62306 0.41284 0.19412 0.17992 0.5712 0.4175 0.83793 0.52799 0.26674 0.11048 0.94266 0.65308 1.5021 1.2058 0.85422 0.84397 1.0475 1.1251 1.2073 1.7557 0.11948 0.47162 0.26707 0.75085 0.39688 0.75085 0.17574 0 0.19155 0.33714 0.10574 2.2525-0.0555 1.2389-0.13782 2.4066-0.18289 2.595-0.0778 0.32522-0.0159 0.30764 1.2306-0.34958 0.90006-0.47458 1.2886-0.75439 1.2363-0.89047zm-14.819 1.0213c0.19627-0.17172-0.26924-0.01183-0.49706 0.17029-0.26177 0.2097-0.25721 0.21269 0.0799 0.0522 0.19665-0.09358 0.38436-0.19375 0.41714-0.22242zm5.667-0.32867c-0.0519-0.08395-0.16273-0.15253-0.24637-0.15253-0.0948 0-0.084 0.08209 0.0288 0.21799 0.19616 0.23635 0.37147 0.18362 0.21754-0.06537zm-8.0334-1.1322c-0.0684-0.10084-0.34181 0.14578-0.50044 0.45134-0.14757 0.28426-0.13007 0.28014 0.18575-0.04375 0.19177-0.19665 0.33338-0.38008 0.31469-0.40762zm20.234-1.2203c0.49964-0.45019 1.5581-1.7367 1.3009-1.5813-0.83908 0.50711-2.4222 1.8905-2.4229 2.1172-1e-3 0.25622 0.0147 0.25689 0.39249 0.01688 0.21632-0.1375 0.54458-0.38618 0.72946-0.55275zm-18.571 0.19769c0.11799-0.07618 0.15017-0.13868 0.0715-0.13868-0.0787 0-0.23956 0.06233-0.35755 0.13868-0.11799 0.07635-0.15017 0.13868-0.0715 0.13868 0.0787 0 0.23956-0.06233 0.35755-0.13868zm-14.945-1.0011c-0.0486-0.07872-0.15275-0.14307-0.23141-0.14307-0.0787 0-0.10324 0.06436-0.0546 0.14307 0.0486 0.07872 0.15275 0.14308 0.23141 0.14308 0.0787 0 0.10324-0.06436 0.0546-0.14308zm-9.8938-2.2394c-0.024-1.2317-0.0715-2.2673-0.10556-2.3014-0.14665-0.14662-0.2577 1.3918-0.19775 2.7398 0.0556 1.2492 0.15071 1.801 0.31056 1.801 0.02 0 0.0167-1.0077-7e-3 -2.2394zm12.826 1.8819c0.0993-0.11959 0.1148-0.21453 0.035-0.21453-0.0787 0-0.22314 0.09662-0.32106 0.21453-0.0993 0.11959-0.1148 0.21453-0.035 0.21453 0.0787 0 0.22313-0.09645 0.32106-0.21453zm0.50557-1.778c-0.27523-0.53225-0.36255-0.55179-0.36255-0.08125 0 0.20976 0.0739 0.34277 0.17877 0.32179 0.10145-0.02027 0.20551 0.14983 0.24059 0.39329 0.0501 0.34801 0.072 0.3701 0.11595 0.11689 0.0298-0.17167-0.048-0.50955-0.17276-0.75085zm-20.53-0.86781c0.37322-1.4573 0.50788-2.6626 0.32413-2.9009-0.0738-0.09561-0.21077-0.75318-0.30443-1.4611-0.16724-1.2641-0.54468-3.2245-0.70215-3.647-0.044-0.11808-0.12166 0.075-0.17262 0.42905-0.0907 0.6302-0.51146 1.7175-1.2729 3.2894-0.33331 0.68811-0.37461 0.92539-0.3298 1.895 0.0365 0.78888 0.10489 1.1084 0.23746 1.1084 0.10245 0 0.26207 0.30113 0.35476 0.66922 0.1641 0.65172 0.53139 1.2839 1.0434 1.7959 0.13872 0.13868 0.25657 0.33267 0.2619 0.43098 0.016 0.29498 0.2302-0.3203 0.56021-1.609zm-4.173 0.49678c-0.044-0.04409-0.124 0.0353-0.17771 0.1764-0.0776 0.20384-0.0612 0.22026 0.0801 0.08007 0.0977-0.09696 0.14169-0.21243 0.0977-0.25647zm58.826-0.60404c0.17788-0.22684 0.17283-0.23188-0.054-0.05405-0.23823 0.18684-0.314 0.30429-0.19628 0.30429 0.0297 0 0.14231-0.11267 0.25028-0.25029zm1.1259-2.0357c0.74727-0.59875 1.5611-1.23 1.8086-1.4027 0.70314-0.49081 1.8628-1.9125 1.973-2.4188l0.0998-0.45833-1.0856 0.36498c-1.0256 0.34483-2.7856 1.3756-3.4599 2.0263-0.1686 0.16267-0.33095 0.27145-0.36076 0.24166-0.0298-0.0299-0.19746 0.1549-0.3726 0.41052-0.42584 0.62147-0.68898 2.0133-0.43299 2.2903 0.22653 0.24505 0.16517 0.28039 1.8305-1.0539zm4.7316-0.88394c0.42872-0.84039 0.26458-0.80047-0.21473 0.0522-0.22507 0.40037-0.33496 0.68206-0.24422 0.62598 0.0907-0.05608 0.29725-0.36127 0.45895-0.67819zm-41.416 0.45262c-0.0486-0.07872-0.26158-0.13666-0.47325-0.12872l-0.38486 0.01352 0.35755 0.11452c0.50764 0.1625 0.60104 0.1625 0.50056 0zm-17.6-2.2153c0.14262-0.47113 0.44736-1.1898 0.67722-1.5971l0.41793-0.74054-0.2215-0.85483c-0.28157-1.0866-0.28995-1.4059-0.0313-1.1912 0.15677 0.13007 0.16864 0.01352 0.0676-0.66182-0.0675-0.45084-0.17129-1.238-0.23072-1.7493l-0.10804-0.92961-1.1752 1.7641c-0.89782 1.3478-1.1752 1.8793-1.1752 2.2525 0 0.75464 0.2357 0.57713 0.33383-0.25142 0.0825-0.69659 0.28355-1.1217 0.45121-0.95407 0.0411 0.04105 0.10631 0.74475 0.14496 1.5637 0.0946 2.0048 0.37573 4.4641 0.49404 4.3216 0.0527-0.06351 0.21252-0.50079 0.35513-0.97193zm41.474-0.20166c-0.0877-0.08767-0.77715 0.29566-0.77715 0.43218 0 0.06166 0.18892 0.0034 0.41982-0.12872 0.2309-0.1326 0.39171-0.26909 0.35733-0.30345zm11.853-4.3071c0.10407-0.0013 0.0894-0.05304-0.0381-0.13362-0.17102-0.10811-0.13584-0.20252 0.19922-0.53414 0.77921-0.77116 2.0589-3.9824 1.8766-4.709-0.26549-1.0578-0.68553-1.915-0.93836-1.915-0.14594 0-0.39194-0.16081-0.54661-0.35755-0.1547-0.19664-0.34924-0.35753-0.43233-0.35753-0.0831 0-0.215-0.11267-0.29312-0.25029-0.12625-0.22248-0.16589-0.22647-0.357-0.03581-0.11823 0.11808-0.29753 0.52551-0.39843 0.90559-0.16352 0.6159-0.15744 0.70561 0.0559 0.825 0.21272 0.11909 0.22997 0.36039 0.15501 2.1693-0.0899 2.1705-9e-3 1.8534-1.2473 4.8957-0.12805 0.31464-0.28942 0.674-0.35859 0.79858-0.0692 0.12449 0.38707-0.11672 1.0139-0.53632 0.62681-0.41954 1.216-0.7638 1.3093-0.765zm6.97-0.01183c0.16441-0.32226 0.27439-0.61046 0.24441-0.64044-0.03-0.03007-0.19453 0.23368-0.36566 0.58593-0.38977 0.80226-0.28438 0.84965 0.12125 0.05456zm-56.91-2.4313-0.0536-1.0587-0.18171 0.57208c-0.27017 0.85051-0.24607 0.49198 0.0823-1.2243 0.16169-0.84517 0.27432-1.8808 0.25028-2.3015l-0.0437-0.76475-1.1084 1.5548c-1.0238 1.4362-1.3106 1.948-0.97526 1.7407 0.22642-0.13986 0.2893 0.11791 0.53195 2.1812l0.23502 1.9984 1.3167-1.6391-0.0536-1.0587zm52.47 1.2288c0.82593-0.36524 1.8235-0.80079 2.2168-0.96787 0.3933-0.16706 0.84381-0.40931 1.0011-0.53828 0.15731-0.12889 0.49438-0.31672 0.74903-0.41725 0.25966-0.10253 0.42207-0.24895 0.36983-0.33348-0.0545-0.08834-9e-3 -0.11875 0.10908-0.07365 0.43639 0.16622 0.82524-0.17938 1.3993-1.2436 0.50283-0.9322 0.59226-1.2265 0.60114-1.978 6e-3 -0.48559 0.062-1.2369 0.12503-1.6695 0.063-0.43264 0.0923-0.8116 0.0651-0.84216-0.0857-0.09628-1.3357 0.90578-1.3403 1.0745-2e-3 0.08834-1.072 1.0216-2.3768 2.0738-3.1761 2.5611-3.0048 2.4008-3.3441 3.1286-0.165 0.35397-0.55328 1.0841-0.86283 1.6226-0.30954 0.53845-0.48435 0.94512-0.38846 0.90372 0.0959-0.04138 0.85011-0.37409 1.676-0.73934zm-34.506-0.72919c-0.0475-0.04747-0.17088-0.05253-0.27412-0.01183-0.11409 0.04561-0.0802 0.07956 0.0864 0.08649 0.15076 0.0067 0.23523-0.02754 0.18771-0.07517zm-20.312-0.80578c-0.0342-0.17792-0.0635-0.06605-0.0651 0.2486-2e-3 0.31464 0.0264 0.4602 0.0622 0.32348 0.0358-0.13682 0.0371-0.39417 3e-3 -0.57208zm24.494-0.45813c-0.27758-0.10236-0.83857-0.3552-1.2466-0.56199-0.59814-0.30311-0.94388-0.3762-1.7836-0.37713-1.1682-0.0013-4.0668-0.34123-4.8307-0.56657-0.67082-0.19787-0.74479-0.18782-0.69055 0.09392 0.0578 0.30034 1.9848 0.83524 2.1348 0.59257 0.12708-0.20561 0.91782-0.09848 2.6308 0.35638 1.3656 0.36262 2.9383 0.62365 3.8615 0.64088l0.42906 0.0084-0.50469-0.186zm1.7918-0.0799c-0.0486-0.07872-0.30984-0.14307-0.58051-0.14307s-0.49212-0.05558-0.49212-0.12365c0-0.19019-1.2387-0.61946-1.6053-0.5563-0.27186 0.04679-0.21207 0.10726 0.36312 0.36686 0.37872 0.17093 0.85321 0.34064 1.0544 0.37713 0.20122 0.03649 0.40086 0.10135 0.44365 0.14409 0.14311 0.14308 0.90774 0.08209 0.81672-0.0652zm4.2906-0.29983c1.0163-0.1576 1.0962-0.19115 0.71508-0.3011-0.44663-0.12888-1.1909-0.08091-3.1787 0.20475-0.73043 0.1049-1.11 0.21522-1.0011 0.29083 0.20919 0.14527 1.876 0.05169 3.4647-0.19448zm-27.146-0.51981c-0.0363-0.13919-0.0683-0.05996-0.0712 0.17606-3e-3 0.23598 0.0268 0.34983 0.0659 0.25299 0.0392-0.09679 0.0416-0.2899 5e-3 -0.42905zm24.477 0.01352c0.5242-0.12871 1.0484-0.26116 1.1648-0.29419 0.12735-0.03615-0.0215-0.16453-0.37356-0.3221-0.53507-0.23954-0.65141-0.24449-1.3559-0.0576-0.42382 0.1125-1.2533 0.25763-1.8432 0.32269-0.58995 0.06503-0.92323 0.12686-0.74063 0.13733 0.18261 0.01013 0.42855 0.11554 0.54654 0.23355 0.28545 0.28544 1.3942 0.27708 2.6019-0.0196zm6.9057-0.48812c0.34442-0.31861 0.48868-0.51331 0.32059-0.43269-0.16809 0.08058-0.84386 0.31115-1.5017 0.51228-0.87181 0.26654-1.0362 0.34941-0.60645 0.30571 0.32428-0.03294 0.67825-0.0034 0.7866 0.06486 0.29625 0.18765 0.32593 0.17429 1.001-0.45012zm-14.033-0.03429c-0.19665-0.09088-0.38973-0.20554-0.42906-0.25493-0.15049-0.18902-0.71025-0.4188-1.0275-0.42182-0.54032-0.0051-1.4948-0.50981-2.2236-1.1757-0.75024-0.68554-1.469-1.1779-1.4677-1.0055 5.3e-4 0.06081 0.0625 0.48738 0.13796 0.94792 0.15265 0.93216 0.4007 1.3742 0.59724 1.0644 0.085-0.13395 0.1211-0.10608 0.12993 0.10051l0.0122 0.28603 0.12292-0.28603c0.11875-0.27637 0.12326-0.27549 0.13296 0.02566 8e-3 0.25865 0.13774 0.33794 0.7609 0.4663 0.78127 0.16098 2.6339 0.39407 3.2537 0.40946l0.35754 0.0084zm12.729-0.41598c0.5113-0.16351 1.2344-0.44992 1.6068-0.63635 1.0087-0.50495 3.1438-1.7832 3.0819-1.8451-0.0297-0.02956-0.40189 0.03784-0.82721 0.15017-0.42531 0.11216-0.79887 0.17841-0.83014 0.14713-0.0313-0.03125 0.22318-0.1277 0.56543-0.21428 1.1983-0.30321 1.8823-0.60343 1.6746-0.73502-0.27603-0.1749-0.89479-0.15625-1.0836 0.03243-0.16962 0.16963-1.7509-0.11622-3.0383-0.54934-0.4483-0.15084-0.65402-0.1674-0.69125-0.05574-0.1596 0.47882-2.0252-0.29191-3.0962-1.2791l-0.61166-0.5638-1.1283 0.09307c-0.62056 0.05118-1.1746 0.16385-1.2312 0.25015-0.14333 0.21863-5.752 0.18285-7.048-0.04493-1.0856-0.19083-2.714-0.98125-3.7425-1.8167-0.32787-0.26632-0.69793-0.48421-0.82235-0.48421-0.12441 0-0.22621-0.11436-0.22621-0.25421 0-0.13986-0.10027-0.39736-0.22281-0.57231-0.12255-0.17497-0.17697-0.3923-0.12091-0.48299 0.0596-0.09645 0.0393-0.12618-0.0488-0.07179-0.1595 0.09865-1.0376-0.80843-1.0376-1.0717 0-0.08784-0.15439-0.12517-0.35754-0.08632-0.23976 0.04577-0.35755 0.0034-0.35755-0.12635 0-0.30404-0.38906-0.22863-0.63547 0.12314-0.12245 0.17483-0.22264 0.24297-0.22264 0.15152 0-0.09155 0.0644-0.20618 0.14303-0.2548 0.21599-0.13345 0.17144-0.64358-0.0562-0.64358-0.27265 0-0.3202 0.1647-0.59434 2.059-0.22769 1.5733-0.22279 2.7049 0.0188 4.341 0.10012 0.67814 0.29399 0.79228 0.42939 0.2528 0.0857-0.34144 0.0981-0.34497 0.32452-0.0924 0.12947 0.14442 0.57329 0.39716 0.98625 0.56162l0.75085 0.299v-0.39622c0-0.23451-0.14166-0.52926-0.34714-0.7223-0.30052-0.28233-0.35332-0.47774-0.39329-1.4555-0.0254-0.62113-0.0353-1.1292-0.0221-1.129 0.0132 0 0.16876 0.24167 0.34558 0.53664 0.42604 0.71073 1.7646 1.9996 2.445 2.3542 0.29933 0.15608 0.69346 0.45439 0.87583 0.66306 0.18238 0.20867 0.51335 0.54029 0.73551 0.73693l0.40391 0.35755-0.17964-0.35755c-0.0988-0.19664-0.44542-0.60404-0.77026-0.90529l-0.59061-0.54774 0.57207 0.3247c0.31464 0.17858 0.76128 0.50551 0.99252 0.72652 0.23125 0.221 0.50477 0.40181 0.60783 0.40181s0.18738 0.05912 0.18738 0.13142c0 0.25615 0.97151 0.72689 1.5186 0.73583 0.50043 0.0084 0.5214 0.02265 0.21264 0.14612-0.18841 0.07534-0.31631 0.16334-0.28422 0.19536 0.0321 0.03209 0.57239 0.32579 1.2007 0.65267 0.62827 0.32687 0.98142 0.54902 0.78477 0.49366-0.19665-0.05541-0.89962-0.38221-1.5622-0.72635-0.66255-0.34414-1.2272-0.60314-1.2548-0.57556-0.14559 0.14561 0.18835 0.50275 0.88746 0.94921 0.43113 0.2753 0.7842 0.54365 0.7846 0.59632 5.3e-4 0.0527 0.33135 0.20559 0.73544 0.3398 0.55524 0.18443 0.9657 0.22046 1.6805 0.14747 0.52017-0.05304 1.1067-0.09476 1.3033-0.09257 0.19665 0.0016 0.66067-0.075 1.0312-0.17173l0.67361-0.17576-0.94396-0.7151c-1.3587-1.0293-1.7103-1.634-0.40326-0.69348 1.8995 1.3667 1.6368 1.3162 3.667 0.7048 0.97222-0.2928 2.2826-0.59162 2.9118-0.66405 1.6402-0.18878 1.9256-0.13818 0.50056 0.08885-1.2002 0.19122-4.5625 1.1964-4.5718 1.3668-3e-3 0.04831 0.23654 0.19029 0.53152 0.31547 0.71977 0.30547 2.9039 0.19208 4.1833-0.21722zm1.5464-1.7855c0.10324-0.04139 0.22659-0.03632 0.27412 0.01183 0.0475 0.04747-0.0369 0.08125-0.18771 0.07517-0.16661-0.0067-0.2005-0.04071-0.0864-0.08649zm-16.784-2.4861c-0.0518-0.08395-0.0636-0.18321-0.0261-0.22071 0.0375-0.0375 0.10627 0.03125 0.15285 0.15253 0.0967 0.25201 0.0142 0.29632-0.12673 0.06824zm-4.6309-3.3633c7e-3 -0.16656 0.0407-0.20051 0.0864-0.08649 0.0413 0.10321 0.0362 0.2266-0.0113 0.27412-0.0475 0.04747-0.0813-0.03699-0.0751-0.1877zm0.41777-1.0891c0-0.16791 0.0483-0.24715 0.10726-0.17595 0.059 0.07111 0.16093 0.1695 0.22652 0.21846 0.0656 0.04899 0.0173 0.12821-0.10727 0.17596-0.16309 0.0625-0.22651 0.0013-0.22651-0.21848zm-0.6238-1.0443c0.0453-0.11807 0.10762-0.21453 0.13853-0.21453 0.0309 0 0.0562 0.09662 0.0562 0.21453 0 0.11808-0.0623 0.21453-0.13853 0.21453-0.0762 0-0.10148-0.09662-0.0562-0.21453zm2.054 9.9427c0-0.15929-1.136-0.77384-1.2394-0.67044-0.0534 0.05338 1.0629 0.80389 1.2036 0.80921 0.0197 0.0013 0.0358-0.06166 0.0358-0.13868zm20.452-0.2275c0-0.03936-0.12871-0.0034-0.28603 0.08159-0.15732 0.08412-0.28604 0.18527-0.28604 0.22459 0 0.03936 0.12872 0.0034 0.28604-0.08159 0.15731-0.08412 0.28603-0.18525 0.28603-0.22459zm-14.593 0.01691c-0.11519-0.11419-0.58537-0.39688-1.0449-0.62806-1.0223-0.51434-0.84633-0.30172 0.28947 0.34983 0.92823 0.5325 1.061 0.58142 0.75539 0.27823zm15.389-0.66541c0.0693-0.11216 0.013-0.11166-0.1986 0.0016-0.16243 0.087-0.33886 0.22848-0.39206 0.31456-0.0693 0.11216-0.013 0.11165 0.19859-0.0016 0.16244-0.087 0.33886-0.22848 0.39207-0.31456zm-17.958-0.27102c-0.66813-0.56241-1.0813-0.55866-0.46255 0.0034 0.25688 0.23367 0.57868 0.42312 0.71509 0.42101 0.18012-0.0034 0.11096-0.11926-0.25254-0.4252zm-3.4836-0.25029c-0.0488-0.29496-0.0894-0.77294-0.0902-1.0621-2e-3 -0.49988-0.0416-0.54417-0.81326-0.89743-1.3174-0.60312-1.4287-0.60706-1.516-0.05371-0.0466 0.29539 6e-3 0.60456 0.14 0.81524 0.11829 0.18667 0.14403 0.29551 0.0572 0.24184-0.0956-0.05912-0.15786 0.01857-0.15786 0.19692 0 0.16199 0.0269 0.29448 0.0598 0.29448s0.1777 0.04426 0.32179 0.09831c0.23789 0.08919 0.24282 0.07281 0.0537-0.17877-0.11456-0.15236 0.0142-0.07331 0.28604 0.17591 0.43901 0.40226 1.2722 0.86169 1.6214 0.89404 0.0693 0.0067 0.0861-0.22968 0.0373-0.52466zm41.956-2.6648c0-0.78274-0.0446-1.3786-0.0991-1.3241-0.0545 0.05456-0.40392 1.04-0.77648 2.19l-0.6774 2.0909 1.5529-1.5337zm-37.951 2.5218c-0.0196-0.24701-0.89205-1.0252-1.158-1.0329-0.0754-0.0016 0.14719 0.28563 0.49458 0.6396 0.3474 0.35397 0.64326 0.64358 0.65747 0.64358 0.0142 0 0.0169-0.11267 6e-3 -0.25027zm36.066-1.5732c0.65211-2.1873 0.88455-3.1578 0.8056-3.3635-0.0459-0.11959-0.38484-0.35488-0.75326-0.52294-0.36842-0.16807-1.0882-0.52407-1.5995-0.7912l-0.92961-0.48569-0.0474 0.45304c-0.0261 0.24919-0.0945 0.48581-0.15208 0.52583-0.0576 0.04003-0.16929 0.43825-0.24821 0.88495-0.13887 0.78596-0.13199 0.81833 0.21288 1.0011 0.34774 0.18432 1.9151 2.4139 2.0946 2.9797 0.15674 0.49387 0.32044 0.31309 0.61689-0.68123zm-35.442 0.61287c0-0.03666-0.14482-0.14358-0.3218-0.23794-0.29178-0.15558-0.30348-0.14932-0.1255 0.06639 0.18275 0.22154 0.4473 0.32296 0.4473 0.17147zm-2.9327-0.50647c-0.1428-0.15777-0.29749-0.24909-0.34373-0.20284-0.0463 0.04628 0.0407 0.17536 0.19331 0.28691 0.39186 0.28652 0.45426 0.25164 0.15043-0.08412zm-1.0854-0.53546c-0.10537-0.13767-0.20978-0.2771-0.23204-0.30986-0.0223-0.03277-0.0405 0.0799-0.0405 0.25027 0 0.19051 0.0894 0.30988 0.23204 0.30988 0.19863 0 0.20445-0.03598 0.0405-0.25029zm42.497-1.5651c0.15343-0.5999 0.27896-1.2492 0.27896-1.4429 0-0.31318-0.027-0.33044-0.24346-0.15591-0.22926 0.18485-0.22926 0.17568 0-0.15727 0.1339-0.19449 0.24346-0.48064 0.24346-0.63588 0-0.24236-0.0708-0.21368-0.50056 0.20289l-0.50057 0.48517 6e-3 1.7954c5e-3 1.683 0.0193 1.7705 0.22161 1.3973 0.11873-0.21893 0.34141-0.88889 0.49484-1.4888zm-41.053 1.48c0-0.0272-0.14481-0.17196-0.32179-0.32179l-0.32179-0.27245 0.27245 0.32179c0.25603 0.3024 0.37113 0.38689 0.37113 0.27245zm22.615-0.61765c0.17797-0.21576 0.16627-0.22196-0.12551-0.06656-0.3328 0.17733-0.41474 0.30443-0.19627 0.30443 0.069 0 0.21382-0.1071 0.32178-0.23794zm-32.713-0.36992c-0.35005-0.6853-0.79091-1.2792-0.88196-1.1882-0.0752 0.07517 0.93818 1.653 1.0616 1.653 0.0318 0-0.0491-0.20916-0.17965-0.46482zm8.6681 0.03581c0-0.07872-0.0682-0.14307-0.15145-0.14307-0.0833 0-0.11169 0.06436-0.0631 0.14307 0.0486 0.07872 0.11677 0.14308 0.15145 0.14308 0.0347 0 0.0631-0.06436 0.0631-0.14308zm45.257-3.9096c-0.0562-0.83878-0.14163-1.5248-0.18991-1.5244-0.27831 0.0016-1.0175 0.91518-1.0184 1.258 0 0.21233-0.12174 0.90091-0.26932 1.5302-0.14756 0.62927-0.31211 1.4016-0.36565 1.7162l-0.0973 0.57206 1.0214-1.0135 1.0214-1.0135zm-50.176 1.6928c0.18827-0.53838 0.34231-1.0567 0.34231-1.1519 0-0.20066-1.2927-1.0784-1.4474-0.98276-0.0571 0.03531-0.20885 0.38022-0.33713 0.76645l-0.23325 0.70223 0.52612 0.73233c0.65127 0.90652 0.57903 1.1012-0.0815 0.21963-0.61881-0.82588-0.73829-0.72216-0.15115 0.13125 0.64179 0.93282 0.94158 0.84232 1.382-0.41723zm-1.3922-0.75084c-0.17789-0.22684-0.17283-0.23189 0.054-0.05405 0.23824 0.18684 0.314 0.30427 0.19629 0.30427-0.0297 0-0.14234-0.11267-0.25029-0.25027zm11.054 0.73382c-0.26231-0.11453-0.76472-0.23088-1.1165-0.2586-0.35175-0.0277-0.67882-0.0897-0.72682-0.13767-0.048-0.04797-0.25353-0.0853-0.45673-0.08294-0.33361 0.0034-0.34369 0.01926-0.10391 0.15862 0.14605 0.0848 0.46785 0.17777 0.71509 0.20644 0.24725 0.02872 0.77133 0.11064 1.1646 0.18204 0.99424 0.18066 1.0709 0.17071 0.52421-0.0679zm7.2797-0.48858c0.15215-0.08142 0.27664-0.21473 0.27664-0.29623 0-0.08159-0.10114-0.04713-0.22475 0.07652-0.49918 0.49917-0.68227 0.21149-1.0042-1.5779l-0.25995-1.4451-1.3272-0.17363c-0.72998-0.09544-1.3859-0.1375-1.4575-0.09307-0.19239 0.11892-2.8156-0.73738-3.8069-1.2427-1.3394-0.68274-2.0559-1.2127-3.271-2.4198-0.61915-0.61502-1.1418-1.1182-1.1614-1.1182-0.10328 0-0.36758 3.1839-0.28741 3.4622 0.0519 0.18025 0.12835 0.44843 0.16987 0.59591 0.0486 0.17265 0.0192 0.23343-0.0824 0.17061-0.11438-0.07061-0.11629 0.01183-7e-3 0.29954 0.21975 0.57799 1.4432 1.637 1.6724 1.4476 0.13108-0.10828 0.52086 0.06808 1.4448 0.6537 0.6959 0.44115 1.677 0.93096 2.1803 1.0885 1.5432 0.48301 6.5614 0.88466 7.1457 0.57193zm15.634-0.07382c0.0488-0.12736 0.0249-0.1847-0.0562-0.13463-0.0778 0.04798-0.14137 0.14797-0.14137 0.22194 0 0.20571 0.10251 0.16047 0.19759-0.08733zm0.61823-2.0664 0.0637-0.64358-0.28447 0.42906c-0.2833 0.42725-0.36549 0.82142-0.31317 1.5017 0.0256 0.33295 0.0427 0.32311 0.24888-0.14308 0.12177-0.27532 0.25005-0.79019 0.28508-1.1442zm0.18024 0.79375c9e-3 -0.24558-0.24478 0.12044-0.34237 0.49341l-0.0935 0.35755 0.21541-0.35755c0.11849-0.19664 0.21772-0.41868 0.2205-0.49341zm11.422-0.70298c0.0923-0.50069 0.16773-1.0428 0.16773-1.2046 0-0.32311-1.3907-1.6035-1.7416-1.6035-0.11498 0-0.62072-0.3186-1.1239-0.70801-0.50314-0.38941-0.92741-0.69512-0.94278-0.67934-0.0839 0.08598 0.42649 1.9594 0.53387 1.9594 0.0704 0 0.12799 0.27602 0.12799 0.61336 0 0.58625 0.0332 0.6337 0.75084 1.0729 0.41297 0.25272 1.0083 0.68223 1.3229 0.95446s0.60922 0.49738 0.65461 0.50036c0.0454 0.0034 0.15804-0.40431 0.25028-0.905zm-46.776 0.05034c-0.15733-0.31799-0.41585-0.64762-0.5745-0.73254-0.26585-0.14223-0.28054-0.1223-0.18739 0.25433 0.10859 0.43905 0.77199 1.2269 0.94374 1.1207 0.0573-0.03547-0.0245-0.32455-0.18185-0.64252zm3.1573-0.6427c0.4556-1.1598 0.47291-1.272 0.37587-2.4369-0.0667-0.80012-0.15694-1.2028-0.26188-1.1678-0.14573 0.04865-2.0832 3.6155-2.0903 3.8482-4e-3 0.12601 1.1641 0.95846 1.3556 0.96632 0.0787 0.0034 0.35794-0.54123 0.62062-1.2099zm45.884-0.07044c0.56529-0.63525 0.57063-0.65177 0.41325-1.2772l-0.15943-0.63363-0.4604 0.62605c-0.37276 0.50689-0.46039 0.7613-0.46039 1.3368 0 0.39091 0.0212 0.68394 0.0471 0.65117 0.0259-0.03277 0.30484-0.34921 0.61984-0.70318zm-47.138-2.1093c0.9676-1.8728 1.0342-2.0564 0.82266-2.2679-0.21153-0.21152-0.27628-0.15067-0.80008 0.75059-0.67805 1.1668-1.3857 2.5685-1.5276 3.0256-0.10647 0.34311 0.17099 0.84907 0.35248 0.64277 0.0548-0.06233 0.57347-1.0303 1.1525-2.1511zm-1.7392 0.94963c0.0906-0.28382 0.58103-1.2457 1.0899-2.1374l0.9252-1.6214-0.38428-0.4011c-0.58211-0.6076-0.38583-0.85998-1.8514 2.3805l-0.90226 1.995 0.38614 0.25329c0.4403 0.28884 0.50877 0.24525 0.73667-0.46884zm35.164-0.09662c-0.0834-0.39522-0.32755-0.2242-0.3642 0.25507-0.0364 0.47618-0.0275 0.48676 0.18291 0.2173 0.12165-0.15574 0.20323-0.36836 0.18129-0.47237zm19.72 0.07635c-0.0397-0.09831-0.0721-0.01791-0.0721 0.17877 0 0.19665 0.0325 0.27709 0.0721 0.17877 0.0397-0.09831 0.0397-0.25921 0-0.35753zm-56.426-0.34682c-0.1686-0.28992-0.20931-0.19713-0.0713 0.1625 0.0491 0.12787 0.11931 0.20226 0.15613 0.16537 0.0368-0.03683-1e-3 -0.18439-0.0848-0.32796zm18.107 0.29617c-0.0475-0.04747-0.17087-0.05254-0.27411-0.01183-0.11409 0.04561-0.0802 0.07956 0.0864 0.08648 0.15076 0.0067 0.23523-0.02753 0.18771-0.07517zm-0.67635-0.19963c-0.11799-0.07618-0.27889-0.13868-0.35755-0.13868-0.0787 0-0.0465 0.06233 0.0715 0.13868 0.11799 0.07635 0.27889 0.13868 0.35755 0.13868 0.0787 0 0.0465-0.06233-0.0715-0.13868zm-10.818-0.21453c-0.0453-0.11807-0.10761-0.21453-0.13853-0.21453-0.0309 0-0.0562 0.09662-0.0562 0.21453 0 0.11808 0.0623 0.21453 0.13854 0.21453 0.0762 0 0.10148-0.09645 0.0562-0.21453zm44.522-0.25028c-0.0397-0.09831-0.0722-0.01791-0.0722 0.17878 0 0.19664 0.0325 0.2771 0.0722 0.17877 0.0397-0.09831 0.0397-0.25922 0-0.35755zm1.7645-0.30732c0-0.09442-0.0589-0.23292-0.13093-0.30765-0.072-0.07466-0.22303-0.45581-0.33558-0.84686-0.20224-0.70265-0.20687-0.70684-0.39562-0.35755-0.10505 0.19439-0.20572 0.48216-0.22371 0.63948-0.018 0.15726-0.0493 0.35041-0.0696 0.42906-0.0203 0.07872 0.0122 0.3786 0.0722 0.66654l0.10908 0.52353 0.48705-0.28736c0.26787-0.15811 0.48705-0.36468 0.48705-0.45917zm-47.339-0.38184c0-0.2113-0.0965-0.46432-0.21453-0.56225-0.18662-0.1549-0.21393-0.06875-0.20998 0.66183 4e-3 0.76961 0.0221 0.81664 0.21453 0.56226 0.11549-0.1527 0.20998-0.45052 0.20998-0.66184zm8.2235 0.55856c-0.31464-0.16318-0.68747-0.39809-0.82851-0.52198-0.23596-0.20726-0.2485-0.20458-0.15706 0.03378 0.0547 0.1424 0.36313 0.37877 0.68549 0.52517 0.79247 0.35988 1.0128 0.33279 0.30007-0.03699zm43.505-0.656c-0.036-0.13767-0.0654-0.025-0.0654 0.25027 0 0.27532 0.0294 0.38794 0.0654 0.25028 0.036-0.13767 0.036-0.3629 0-0.50056zm-50.348-1.1084c-0.0363-0.19216-0.0604-0.15422-0.0735 0.11571-0.0106 0.22096-0.0819 0.36312-0.15829 0.31593-0.23094-0.14274-0.34281 0.61987-0.12877 0.87777 0.17033 0.20522 0.2066 0.15811 0.30398-0.39517 0.0608-0.34551 0.0863-0.75693 0.0566-0.91424zm5.0103 0.59365c-0.20421-0.26774-0.62423-0.61863-0.93337-0.77976-0.55196-0.2877-0.56076-0.28792-0.48877-0.01183 0.0738 0.28243 1.5993 1.4733 1.7256 1.347 0.0373-0.03733-0.0992-0.28691-0.30344-0.55463zm41.743-0.31556c-0.0539-0.28701-0.13009-0.48966-0.16942-0.45034-0.0393 0.03936-0.0274 0.30634 0.0264 0.59334 0.0538 0.28703 0.13007 0.48968 0.1694 0.45036 0.0393-0.03936 0.0275-0.30635-0.0264-0.59336zm-53.148-0.70714c0-0.07872-0.0945-0.01807-0.20998 0.13463-0.11549 0.1527-0.20998 0.34199-0.20998 0.42064 0 0.07872 0.0945 0.01807 0.20998-0.13463 0.11549-0.1527 0.20998-0.34196 0.20998-0.42063zm17.743 0.14257c0-0.43004-0.13514-0.63225-0.9536-1.4269-0.71448-0.6937-1.0283-0.90797-1.2514-0.85451-0.39424 0.09443-1.8107-1.035-3.8989-3.109-1.2628-1.2542-1.5965-1.6676-1.588-1.9673 6e-3 -0.20867-0.0999-0.71255-0.23512-1.1198-0.13525-0.4072-0.20524-0.80616-0.15554-0.88657 0.13601-0.22008 0.44326-0.17608 0.66381 0.0951 0.17189 0.21134 0.16517 0.22965-0.054 0.14747-0.15277-0.05726-0.25024-0.02585-0.25017 0.08057 1.3e-4 0.19703 0.81394 1.962 0.90466 1.962 0.0324 0-0.0328-0.37007-0.14485-0.82235-0.11201-0.4523-0.20118-1.2407-0.19816-1.752l6e-3 -0.92961-0.56927 0.64358c-0.62761 0.70951-0.72018 1.2105-0.35358 1.9134 0.19643 0.37666 0.19509 0.39541-0.0157 0.22041-0.12678-0.10524-0.29114-0.35079-0.36526-0.54576l-0.13476-0.35446-0.18607 0.34858c-0.10233 0.19172-0.33142 0.60603-0.50908 0.92066-0.25155 0.44551-0.26429 0.50821-0.0576 0.28346 0.14599-0.15878 0.42634-0.41616 0.62299-0.57208 0.35705-0.28306 0.35724-0.28306 0.13571 0.0034-0.12201 0.15726-0.43719 0.54042-0.70041 0.85134-0.47699 0.56343-1.3861 2.3227-1.2636 2.4452 0.0354 0.03547 0.34333-0.19297 0.68416-0.50762 0.34083-0.31464 0.63363-0.5721 0.65067-0.5721 0.017 0-0.0611 0.26733-0.17368 0.59406-0.11257 0.32672-0.17014 0.68404-0.12792 0.79402 0.0422 0.10997 0.0212 0.16571-0.0468 0.12365-0.16522-0.1022-0.16132 0.63951 5e-3 0.95532 0.0725 0.13767 0.21913 0.25029 0.32585 0.25029s0.50669 0.2776 0.88883 0.61686c1.2062 1.0709 1.6244 1.2944 1.6244 0.86816 0-0.26718 0.33246-0.22613 1.1862 0.14645l0.54259 0.23682-0.23725-0.36209c-0.34948-0.53336-0.0817-0.44027 0.47183 0.16402 0.43402 0.47385 0.67685 0.57961 2.4415 1.0634 1.0777 0.29546 2.04 0.54137 2.1383 0.54646 0.11076 0.0051 0.17877-0.18139 0.17877-0.49179zm-12.849-0.14426c-0.094-0.35155-0.12708-0.37545-0.21227-0.15338-0.0555 0.1446-0.0263 0.35289 0.065 0.46281 0.23069 0.27796 0.27787 0.17887 0.1473-0.30934zm0.77402-0.73986c-0.0435-0.11334-0.14392-0.16605-0.22314-0.11723-0.16594 0.10253-0.18976 0.64464-0.0449 1.0221 0.0794 0.20699 0.12375 0.16317 0.22314-0.22027 0.0682-0.26323 0.0884-0.57135 0.0449-0.68473zm0.34354 0.45556c0-0.23686-0.0238-0.24916-0.13863-0.07145-0.0763 0.11807-0.13863 0.34324-0.13863 0.50057 0 0.23684 0.0238 0.24916 0.13863 0.07145 0.0762-0.11808 0.13863-0.34324 0.13863-0.50056zm-6.8605-0.50057c0.16052-0.31463 0.37469-0.57206 0.47593-0.57206 0.10125 0 0.3939-0.29765 0.65032-0.66145l0.46623-0.66144-0.39289-0.41008c-0.37679-0.39329-0.40428-0.39988-0.67065-0.16098-0.52841 0.47404-1.5301 1.8732-1.5301 2.1372 0 0.30508 0.38176 0.9008 0.57727 0.9008 0.0726 0 0.26334-0.25743 0.42386-0.57208zm5.291-0.56363-7.2e-4 -0.509-0.35169 0.42905c-0.4009 0.4891-0.43506 0.65632-0.18512 0.90625 0.25494 0.25495 0.53842-0.18086 0.53752-0.8263zm1.6549-0.83321c-0.11368-0.11368-0.49983 0.41255-0.5055 0.6889-2e-3 0.12196 0.0759 0.30232 0.17422 0.40086 0.14311 0.14341 0.20236 0.06098 0.297-0.41333 0.065-0.32588 0.0805-0.63027 0.0343-0.67644zm0.30748 0.0017c-0.0328-0.2163-0.0596-0.03936-0.0596 0.39331 0 0.43262 0.0268 0.60961 0.0596 0.39329 0.0328-0.21632 0.0328-0.57029 0-0.7866zm11.256 0.77132c-0.0496-0.12922-0.1898-0.235-0.31157-0.235-0.18712 0-0.1812 0.04443 0.0383 0.28691 0.29178 0.32243 0.40845 0.30025 0.27331-0.05186zm-13.802-0.40619c0.51827-0.70473 0.52704-0.78736 0.13372-1.259l-0.2982-0.35755-1.2497 1.4183 0.38251 0.39926c0.21037 0.2196 0.42925 0.39924 0.48639 0.39924 0.0571 0 0.30253-0.27012 0.54532-0.60024zm3.4338-0.77667c6e-3 -0.1674-0.0789-0.37892-0.18888-0.47015-0.16596-0.13767-0.21671-0.02078-0.29919 0.68995-0.12405 1.0689 0.0601 1.4661 0.30443 0.65656 0.095-0.31465 0.17759-0.70899 0.18364-0.87635zm-8.8491 0.17951c4e-3 -0.08868 0.25798-0.41664 0.56472-0.72877 0.30674-0.31213 0.52534-0.59988 0.48577-0.63944-0.0396-0.03953-0.1318 0.0228-0.20498 0.13851-0.1051 0.16622-0.13351 0.14274-0.13524-0.11149-2e-3 -0.38037-0.38013-0.43711-0.47567-0.07145-0.0505 0.19326-0.0692 0.17888-0.082-0.06301-0.023-0.43478 0.18907-0.52196 0.78855-0.3241l0.51352 0.16948 0.98538-0.97784c0.54196-0.5378 0.98537-1.0323 0.98537-1.0989 0-0.06655-0.20101-0.41324-0.44669-0.77034-0.34243-0.4977-0.47815-0.60387-0.58144-0.45481-0.0941 0.13581-0.10743 0.0973-0.0442-0.12736 0.0509-0.1809 0.0273-0.32179-0.0538-0.32179-0.21496 0-1.4482 1.6552-1.4482 1.9437 0 0.13699-0.0425 0.20672-0.0944 0.15473-0.0519-0.05186-0.18733 0.03818-0.30087 0.2003-0.11355 0.16216-0.28996 0.26269-0.39204 0.22351-0.25375-0.0973-0.34506 0.30155-0.45381 1.9828-0.0856 1.3227-0.0746 1.4154 0.14527 1.2339 0.13077-0.10794 0.24094-0.26887 0.2448-0.35755zm2.1383-3.7998c0-0.07399 0.0636-0.1739 0.14138-0.22196 0.0811-0.05017 0.10505 0.0068 0.0562 0.13463-0.0951 0.24777-0.19758 0.29309-0.19758 0.08733zm0.0113-0.66394c7e-3 -0.16655 0.0407-0.20051 0.0864-0.08649 0.0413 0.10321 0.0362 0.2266-0.0113 0.27412-0.0475 0.04747-0.0813-0.03699-0.0751-0.1877zm16.865 4.8115c0-0.23975-0.25365-0.29912-0.33807-0.07906-0.0498 0.1299 5.2e-4 0.21372 0.12802 0.21372 0.11552 0 0.21004-0.06064 0.21004-0.13463zm-12.2-0.68505c-0.0363-0.13919-0.0683-0.05997-0.0712 0.17605-3e-3 0.23598 0.0268 0.34983 0.0659 0.25301 0.0392-0.09679 0.0416-0.2899 5e-3 -0.42905zm12.032-1.0586c-0.10377-0.06571-0.29822-0.12061-0.43212-0.12179-0.20086-0.0017-0.18119 0.06503 0.11241 0.38181 0.19573 0.2112 0.32581 0.46233 0.28906 0.55809-0.0367 0.09578-0.023 0.21866 0.0306 0.27314 0.0536 0.05456 0.11796-0.14189 0.14306-0.43627 0.0282-0.33118-0.0263-0.58093-0.14302-0.65495zm-11.43 0.7222c8e-3 0.19008 0.0542 0.30571 0.10294 0.25693 0.0488-0.04882 0.0444-0.2653-0.01-0.48118-0.0771-0.30711-0.12701-0.34745-0.22951-0.18542-0.072 0.11385-0.12557 0.33578-0.11893 0.49309 0.01 0.23564 0.0323 0.22306 0.12657-0.07145l0.11451-0.35755 0.0142 0.34564zm50.406 0.0772c-0.0466-0.12128-0.11535-0.19002-0.15285-0.15253-0.0375 0.0375-0.0257 0.13682 0.0261 0.22069 0.14101 0.22818 0.22345 0.18385 0.12674-0.06824zm-51.412-0.67318c0.0929-0.41296 0.2091-0.90296 0.25821-1.0889 0.0814-0.30818 0.0625-0.32367-0.2145-0.17544-0.30968 0.16571-1.0252 0.82948-1.0252 0.95101 0 0.12314 0.64241 1.0606 0.72808 1.0624 0.0465 0.0014 0.16053-0.33612 0.25342-0.74909zm-2.4843-0.79958c-0.0363-0.03632 0.0381-0.14206 0.16524-0.23507 0.21218-0.15507 0.21079-0.20025-0.0169-0.54767-0.3062-0.46733-0.43928-0.40656-1.506 0.68762l-0.7866 0.80686 0.42739 0.34463 0.42739 0.34465 0.67771-0.66752c0.37273-0.36713 0.64801-0.69721 0.61171-0.7335zm13.874 1.2644c-0.0486-0.07872-0.15275-0.14307-0.23141-0.14307-0.0787 0-0.10324 0.06436-0.0546 0.14307 0.0486 0.07872 0.15276 0.14307 0.23141 0.14307 0.0787 0 0.10324-0.06436 0.0546-0.14307zm-9.7458-0.93164c-0.12975-0.33811-0.33365 0.01757-0.32907 0.57409l4e-3 0.42905 0.20814-0.38331c0.11448-0.21083 0.1673-0.48975 0.11739-0.61983zm-0.85295-0.57005c0.061-0.37628 0.0473-0.49865-0.0401-0.35755-0.0731 0.11807-0.17465 0.47196-0.22568 0.7866-0.061 0.37628-0.0473 0.49865 0.0401 0.35755 0.0731-0.1179 0.17465-0.47196 0.22568-0.7866zm2.2737 0.50037c0.0412-0.15743 0.0166-0.25017-0.0548-0.2061-0.0713 0.04409-0.12968 0.1729-0.12968 0.28623 0 0.29603 0.0972 0.2538 0.18451-0.08007zm6.6804 1.86e-4c-0.46774-0.36586-0.70468-0.3701-0.26612-0.0051 0.1857 0.15473 0.40199 0.28199 0.48065 0.28286 0.0787 0.0014-0.0179-0.12432-0.21453-0.27809zm-17.693-0.42924c0.0412-0.15743 0.0166-0.25017-0.0548-0.2061-0.0713 0.04409-0.12968 0.1729-0.12968 0.28623 0 0.29603 0.0972 0.2538 0.18451-0.08007zm9.3324-0.39277c-0.0799-0.20834-0.11189-0.21287-0.22622-0.03209-0.0732 0.11571-0.13413 0.32774-0.13533 0.47101-2e-3 0.2386 0.017 0.2413 0.22623 0.0321 0.13234-0.13226 0.18926-0.33046 0.13532-0.47101zm49.075 0.08007c-0.0457-0.11402-0.0795-0.08024-0.0864 0.08632-6e-3 0.15084 0.0276 0.23524 0.0751 0.18772 0.0475-0.04747 0.0526-0.17088 0.0113-0.27412zm-37.573-0.12179c-0.2303-0.14561-0.56793-0.18208-0.56793-0.06132 0 0.10625 0.62861 0.33351 0.71095 0.25699 0.037-0.03446-0.0273-0.12247-0.14303-0.19569zm-13.44-0.25024c0.35397-0.11875 0.78198-0.26632 0.95113-0.32799 0.18516-0.06757 0.37644-0.32938 0.48068-0.65802 0.21596-0.6809 0.73797-1.6049 1.4668-2.5962 0.61361-0.83463 0.36731-0.82894-0.49227 0.01182-0.76739 0.75017-3.095 3.2952-3.3593 3.6731-0.23314 0.33333-0.23183 0.34238 0.0334 0.23029 0.15181-0.06419 0.56564-0.21382 0.91961-0.33253zm2.3297-0.17323c0.081-0.3098-2e-3 -0.35184-0.31005-0.15676-0.10839 0.06858-0.15287 0.19638-0.0988 0.28385 0.15083 0.24404 0.32607 0.18959 0.40887-0.12703zm10.305 0.07939c0.0619-0.16132 0.18107-0.17752 0.54215-0.07399 0.25456 0.07297 0.475 0.11774 0.48987 0.09949 0.0149-0.01841 0.14167-0.25856 0.28177-0.53389 0.39954-0.78514 1.8006-2.7326 2.3917-3.3245 0.29497-0.29536 0.65307-0.53699 0.79577-0.53699s0.46505-0.27353 0.71634-0.60784c0.42002-0.55878 1.0132-1.089 2.7427-2.4515 2.448-1.9285 3.363-2.3648 5.5777-2.6591 0.66861-0.08885 1.4087-0.27054 1.6447-0.4037 0.359-0.2026 0.82603-0.2403 2.8604-0.23091 2.3938 0.01182 2.4653 0.02044 4.6349 0.61123 1.212 0.33002 2.5956 0.76584 3.0749 0.9685s1.1972 0.41919 1.5954 0.48118c1.1254 0.17519 2.2869 0.84834 4.9708 2.881l0.40323 0.30537-0.20465-0.48395c-0.33985-0.80376-1.8182-2.8409-2.2978-3.1664-0.24712-0.16774-0.932-0.8346-1.522-1.482-0.58995-0.6474-1.1209-1.182-1.1799-1.1879-0.32324-0.03277 7e-3 0.575 0.91323 1.6781l1.0205 1.2429-1.2336-1.2872c-0.67846-0.70794-1.2342-1.3297-1.235-1.3818-3e-3 -0.18304-1.944-1.8828-2.9687-2.5995-0.60579-0.42368-0.98356-0.77781-0.90915-0.85221 0.0744-0.074493 0.29711-0.026352 0.53592 0.11554 0.42697 0.25385 0.28761 0.11233-0.51458-0.52225l-0.47706-0.37743 0.41408 0.078716c0.37277 0.070777 0.3945 0.055068 0.2178-0.15895-0.10797-0.13074-0.27432-0.23758-0.3697-0.23758-0.0954 0-0.79973-0.32179-1.5652-0.71508-0.76551-0.39331-1.4358-0.71336-1.4895-0.71125-0.0538 0.00169 0.12755 0.20105 0.40285 0.44206 0.30819 0.2698 0.39064 0.39784 0.21453 0.33318-0.15732-0.05777-0.8009-0.22424-1.4302-0.3699-1.5172-0.3512-3.803-1.1008-3.3967-1.1139 0.17698-0.00507 0.32179-0.066047 0.32179-0.13395 0-0.17971-1.1234-0.30547-2.7289-0.30547-0.8928 0-1.4383-0.059122-1.5023-0.16267-0.12595-0.2038-5.8176-0.066216-6.7813 0.16402-0.35397 0.08446-1.236 0.21188-1.9601 0.28301-1.6402 0.16115-2.0658 0.23468-3.7606 0.65022-0.74727 0.18319-1.7674 0.40584-2.2669 0.49475-0.97555 0.17361-3.0888 1.0332-2.9302 1.1919 0.20666 0.20666 1.1853 0.079054 2.0319-0.26497 0.48875-0.1986 1.1917-0.39208 1.5621-0.42998l0.67346-0.068919-0.64358 0.29318c-0.35397 0.16132-0.83665 0.38123-1.0726 0.48883-0.3909 0.17824-0.2875 0.19358 1.1628 0.17257 1.3208-0.019087 1.5278 0.00507 1.2157 0.14409l-0.37623 0.16723 0.36553 0.011824c0.20104 0.00676 0.75788-0.12095 1.2374-0.28282 0.54054-0.18253 1.1354-0.27767 1.5652-0.25029l0.69332 0.044257-1.2476 0.41307c-0.6862 0.2272-1.2203 0.45733-1.1868 0.51144 0.0334 0.054054-0.43486 0.10591-1.0407 0.11503-0.73764 0.011824-1.007-0.024493-0.81542-0.10811 0.2147-0.09375 0.10869-0.12737-0.42513-0.1348-0.70746-0.010136-0.70932-0.00845-0.35754 0.22608 0.58442 0.39027 1.2832 1.0947 1.2832 1.2936 0 0.12821-0.22112 0.18647-0.70665 0.18647-0.72312 0-1.0537 0.18363-0.62599 0.34775 0.22796 0.0875 2.2237-0.48272 5.4802-1.5657l1.5017-0.49941-1.7162 0.060304c-0.94391 0.033108-1.5233 0.027534-1.2876-0.011824 0.23572-0.040034 0.46098-0.11824 0.50056-0.1738 0.0396-0.055574 0.41844-0.24291 0.84189-0.41617 0.9118-0.37304 2.1253-0.41368 2.7995-0.09375 0.35766 0.16971 0.62909 0.19231 1.1658 0.096959l0.69955-0.12416-0.64358-0.10507c-0.35397-0.05777-0.99755-0.18154-1.4302-0.27502-0.75813-0.16385-0.70548-0.17257 1.4542-0.24226 2.0367-0.06571 2.2804-0.10152 2.6758-0.39409 0.4738-0.35051 0.87561-0.42037 0.87561-0.1522 0 0.24419-0.58192 0.82824-0.84728 0.85041-0.12394 0.010136-1e-4 0.066216 0.27521 0.12416l0.50056 0.10541-0.47298 0.018918c-0.79704 0.031757-1.7127 0.31931-1.9853 0.62353-0.25486 0.28443-0.25208 0.28779 0.16997 0.20588 0.23598-0.045777 1.1692-0.15439 2.0738-0.24123 0.90459-0.086825 2.063-0.27233 2.5743-0.41213 1.3064-0.35716 4.4034-0.18324 6.1059 0.34292 1.077 0.33284 1.7387 0.71309 1.557 0.89475-0.20165 0.20166-1.1252 0.14882-1.8687-0.1071-0.45836-0.15777-0.87156-0.28444-0.91824-0.28166-0.20156 0.011824 0.65546 0.41433 0.89241 0.41892 0.14489 0.0034 0.2355 0.08514 0.2025 0.18384-0.0661 0.19809-0.46237 0.18802-2.1094-0.05355-1.6598-0.2435-6.2876 0.03277-8.7728 0.52363-1.2073 0.23848-1.9062 0.43627-1.7917 0.50699 0.2454 0.15169 0.0476 0.22282-1.1276 0.40559-0.74683 0.11622-2.4189 0.8575-1.9661 0.87172 0.0787 0.0017-0.12414 0.12584-0.45067 0.27407-0.32652 0.14831-0.93707 0.50081-1.3568 0.78345-0.88795 0.59799-1.322 0.69279-0.89633 0.19576 0.21674-0.25306 0.15547-0.23387-0.29963 0.09392-0.31464 0.22659-0.74129 0.56742-0.94812 0.75742-0.20683 0.19-0.46426 0.32824-0.57207 0.30718-0.1078-0.02112-0.34422 0.01182-0.52534 0.07331-0.26699 0.09054-0.297 0.15051-0.15855 0.31735 0.13887 0.1674 0.12686 0.18892-0.0643 0.11554-0.40638-0.15591-0.94328 0.07247-1.6364 0.69635-0.3685 0.33162-0.58207 0.49034-0.4746 0.35268 0.42285-0.54157-0.10408-0.20949-0.7746 0.48816l-0.70971 0.73845 0.54491-0.30965c0.2997-0.17029 0.50507-0.24515 0.45637-0.16638-0.0487 0.07872-0.0135 0.14324 0.0782 0.14324 0.0949 0 0.12848 0.09983 0.0779 0.23159-0.0705 0.18366-0.0164 0.21774 0.26149 0.1647 0.19269-0.03682 0.43496-0.01351 0.53837 0.0522 0.12995 0.08243 0.0793 0.11993-0.16412 0.12145-0.2176 0.0014-0.5796 0.22542-0.94754 0.58654-0.5595 0.5491-0.58806 0.61596-0.47363 1.1084 0.067 0.28821 0.13208 0.74929 0.14466 1.0246 0.0175 0.38296 0.0368 0.41654 0.0819 0.14307 0.0325-0.19666 0.0927-0.45409 0.13375-0.57208 0.13447-0.38613 0.48334 0.28394 0.48334 0.92834 0 0.32321 0.076 0.6636 0.16874 0.7564 0.0928 0.09274 0.33416 0.50422 0.53632 0.91422 0.35629 0.72262 0.39608 0.75318 1.2972 0.9964 0.51129 0.13801 1.3158 0.41254 1.7877 0.61002 1.0216 0.4275 1.0205 0.42735 1.1214 0.16453zm-3.3828-1.8189c-0.11578-0.18382-0.41614-0.68818-0.66747-1.1208l-0.45696-0.78659 0.0789 0.56049c0.0434 0.30828 0.16162 0.61299 0.26274 0.67715 0.11609 0.07365 0.12442 0.1174 0.0226 0.11875-0.33781 0.0051-0.52213-0.46885-0.64167-1.6482-0.11941-1.178-0.11064-1.2404 0.25135-1.7873 0.20628-0.31172 0.43087-0.56677 0.49908-0.56677 0.18853 0 0.14912 0.16419-0.10744 0.44775-0.1273 0.14071-0.26268 0.53289-0.30086 0.87166-0.0599 0.53174 0.0299 0.80978 0.6575 2.0349 0.39981 0.78044 0.70123 1.4446 0.66984 1.4761-0.0314 0.03142-0.15181-0.09324-0.2676-0.27711zm1.9039-6.9832c0-0.27211 4.0449-2.0109 4.2352-1.8206 0.0299 0.0299-0.50862 0.2649-1.1966 0.52233-0.68798 0.25743-1.6531 0.68551-2.1447 0.95128-0.49162 0.26579-0.89386 0.42194-0.89386 0.34703zm23.169-7.0724c0-0.12264 0.0644-0.22296 0.14302-0.22296 0.0787 0 0.14303 0.060642 0.14303 0.13463 0 0.073987-0.0644 0.17436-0.14303 0.22297-0.0787 0.048649-0.14302-0.011824-0.14302-0.13463zm-0.8932-0.23404c-0.19953-0.11622-0.21424-0.18329-0.0734-0.33414 0.14537-0.15557 0.20719-0.14814 0.35233 0.042568 0.32686 0.42927 0.1946 0.56752-0.27899 0.29166zm-6.794-0.14341c0.48974-0.28525 0.1811-0.91895-0.67934-1.3948-0.24912-0.13784-0.21425-0.15878 0.27028-0.1625 0.64768-0.00507 0.93401 0.2787 0.94083 0.93243 5e-3 0.47745-0.2151 0.78188-0.56038 0.77508-0.18247-0.00338-0.17742-0.030068 0.0286-0.15017zm-10.083-0.65534c0.0983-0.039696 0.25922-0.039696 0.35755 0 0.0983 0.039696 0.0179 0.072128-0.17878 0.072128-0.19664 0-0.27709-0.032432-0.17877-0.072128zm2.2865-0.29024c-0.13861-0.036149-0.21526-0.12517-0.17033-0.19794 0.12032-0.19468 0.52603-0.15287 0.843 0.086824 0.2681 0.20279 0.26565 0.20941-0.0715 0.1934-0.19202-0.00845-0.46254-0.046114-0.60116-0.082263zm1.4044-0.12736c-0.23198-0.16965-0.23918-0.20284-0.044-0.20284 0.12838 0 0.27585 0.068581 0.3277 0.15253 0.15158 0.24527 0.0159 0.26934-0.28372 0.050338zm-3.7982-0.64284c0.80459-0.20044 3.7424-0.32682 4.5126-0.19414 0.70491 0.12145 0.70278 0.1223-0.57965 0.21985-1.9339 0.14713-4.5582 0.13007-3.933-0.025675zm9.1174-0.36981c0.0983-0.039696 0.25922-0.039696 0.35755 0 0.0983 0.039696 0.0179 0.072129-0.17877 0.072129-0.19666 0-0.2771-0.032433-0.17878-0.072129zm-4.3601-0.29394c0.21739-0.032939 0.53918-0.031926 0.71509 0.00169 0.1759 0.033953-2e-3 0.060811-0.39527 0.059797-0.3933-0.00143-0.53722-0.028885-0.31982-0.061824zm1.3567 0.00169c0.17699-0.034121 0.4666-0.034121 0.64358 0 0.17699 0.034122 0.0322 0.061993-0.32179 0.061993-0.35396 0-0.49877-0.027872-0.32179-0.061993zm-22.783 17.58c0.51526-0.57289 0.93683-1.1077 0.93683-1.1883 0-0.18439-0.15294-0.09358-1.2087 0.71774-0.46814 0.35975-0.94289 0.72355-1.055 0.80845-0.16409 0.12416-0.17052 0.21655-0.033 0.47348 0.0939 0.17554 0.22756 0.29917 0.29693 0.27473 0.0694-0.02449 0.5477-0.51318 1.063-1.0861zm8.8028 0.76061c0-0.03666-0.14482-0.13666-0.3218-0.22243-0.309-0.14966-0.31076-0.14713-0.0442 0.06655 0.2918 0.23378 0.36597 0.26539 0.36597 0.15591zm-5.3652-0.50176c0.19477-0.37666 0.19519-0.41574 4e-3 -0.34226-0.11892 0.04561-0.21621 0.13514-0.21621 0.199 0 0.06385-0.0391 0.21782-0.0868 0.34225-0.15028 0.39157 0.0695 0.24549 0.29935-0.19899zm-0.75676-0.18262c0.12406-0.09831 0.39911-0.69363 0.61125-1.3229 0.21213-0.62927 0.41878-1.2407 0.45922-1.3587 0.0404-0.11807-0.15714 0.10135-0.43908 0.48743-0.41214 0.56439-1.0883 1.9976-1.0883 2.3068 0 0.12365 0.23058 0.06672 0.45691-0.11267zm-3.2439-0.89941 1.1976-0.93517-0.29682-0.50307c-0.16326-0.27669-0.36877-0.47147-0.45671-0.43282-0.0879 0.03868-0.73352 0.29944-1.4346 0.57961-0.7011 0.28015-1.3031 0.53774-1.3378 0.57242-0.0589 0.05878 0.98508 1.6488 1.085 1.6525 0.0251 0.0014 0.58463-0.41916 1.2433-0.93348zm5.027-0.87927c0.34807-0.54414 0.53804-1.0266 0.57395-1.4577 0.0295-0.35441 0.0276-0.61591-4e-3 -0.58112-0.18045 0.19691-0.80146 1.5781-0.67418 1.4994 0.22311-0.13784 0.19338-0.04324-0.21702 0.69105-0.51814 0.92708-0.30389 0.82598 0.32153-0.15169zm0.0482-0.74238c0-0.06909 0.10708-0.21384 0.23794-0.32179 0.21576-0.17797 0.22196-0.16622 0.0665 0.12551-0.17733 0.3328-0.30442 0.41475-0.30442 0.19628zm-3.0613 0.82034c0.27148-0.3052 0.2713-0.30559-0.0493-0.10862-0.17699 0.10878-0.32179 0.24655-0.32179 0.30628 0 0.17247 0.0796 0.13007 0.37113-0.19767zm0.99188-1.3559c1.3052-0.8909 1.968-1.4842 1.658-1.4842-0.0933 0-0.20516 0.0924-0.24853 0.20551-0.0434 0.11301-0.15756 0.17529-0.25376 0.13834-0.17168-0.06588-2.9045 1.0008-3.1388 1.2251-0.1854 0.17752 0.3113 1.0345 0.52277 0.90199 0.0976-0.06115 0.75469-0.5052 1.4602-0.98679zm-3.2938 0.38029c0.47196-0.22535 0.76157-0.41223 0.64358-0.41527-0.11799-0.0034-0.56849 0.18147-1.0011 0.41003-1.0132 0.53527-0.76026 0.53895 0.35754 0.0051zm47.84-0.36279c0-0.1179-0.0623-0.21453-0.13853-0.21453-0.0762 0-0.10149 0.09662-0.0562 0.21453 0.0453 0.11807 0.1076 0.21453 0.13853 0.21453 0.0309 0 0.0562-0.09662 0.0562-0.21453zm-50.005-0.35897c1.0113-0.45851 1.3132-0.83093 0.41308-0.50943-0.67 0.23932-1.4638 0.69049-1.465 0.83265-1e-3 0.15338 6e-3 0.15118 1.052-0.32323zm6.3794-1.1749c3e-3 -0.05709-0.16512-0.03919-0.37268 0.0397-0.20755 0.07889-0.40829 0.1125-0.44608 0.07483-0.0378-0.03784-0.16218 0.02483-0.27641 0.13902-0.11424 0.11419-0.32156 0.20772-0.46069 0.20772-0.3137 0-1.7608 0.77848-1.6511 0.88821 0.099 0.09899 3.2004-1.2061 3.207-1.3495zm3.3056-0.22667c0.072-0.18172 0.19678-0.28973 0.2772-0.24003 0.0804 0.04966 0.3429-0.07517 0.58331-0.27742 0.54058-0.45488 0.24549-0.48008-0.47981-0.04105-0.51689 0.31292-1.8246 1.8812-1.8145 2.176 7e-3 0.20785 1.2789-1.227 1.4338-1.6176zm-9.7426 0.58068c0.69401-0.4523 1.3779-0.89145 1.5197-0.97593 0.22979-0.13682 0.23739-0.20309 0.0697-0.60782-0.19911-0.48069-0.36086-0.56973-0.50048-0.27547-0.0467 0.09831-0.0562-0.0174-0.0213-0.25703 0.0832-0.57098-0.0602-0.8124-0.35005-0.5889-0.3215 0.24796-2.2421 3.5275-2.0658 3.5275 0.0475 0 0.6541-0.37007 1.3481-0.82236zm9.1552-0.50387c2e-3 -0.06081-0.15704-0.0051-0.3537 0.12382-0.19664 0.12888-0.35754 0.28596-0.35754 0.34914 0 0.06317-0.038 0.23275-0.0845 0.37684-0.0469 0.14527 0.11076 0.03885 0.3537-0.23858 0.24101-0.2753 0.43994-0.55032 0.44206-0.61113zm41.917 0.64689c-0.19204-0.33385-0.7796-1.0248-0.6385-0.75084 0.14796 0.28725 0.67052 1.0011 0.73284 1.0011 0.0273 0-0.0152-0.11267-0.0943-0.25029zm-49.207-0.03581c0.18488-0.11943 0.1811-0.13885-0.0273-0.14088-0.13301-0.0014-0.28162 0.06216-0.33024 0.14088-0.11187 0.18101 0.0775 0.18101 0.35755 0zm0.28603-0.56363c0-0.23975-0.25364-0.29912-0.33807-0.07922-0.0498 0.1299 4.3e-4 0.21372 0.12803 0.21372 0.11552 0 0.21004-0.06064 0.21004-0.13463zm2.7553-0.24716c1.1061-0.29615 1.1608-0.34306 0.9471-0.81216-0.14517-0.31862-0.26459-0.37929-0.74643-0.37929-0.33863 0-0.69438 0.10253-0.86844 0.25029-0.28419 0.24123-0.28729 0.24058-0.0859-0.01824 0.1515-0.19471-0.0752-0.12534-0.82482 0.25208-0.99155 0.49934-1.148 0.64115-0.93843 0.85071 0.1784 0.1784 1.6222 0.09611 2.5169-0.14341zm3.7169-0.99171c0.25093-0.22931 0.3638-0.28657 0.25279-0.12821-0.11028 0.15726 0.36172-0.28486 1.0489-0.98265 0.6872-0.69777 1.2904-1.2278 1.3404-1.1778s-0.12993 0.32672-0.39986 0.61492l-0.49079 0.52397 0.57207-0.47017c0.31464-0.2586 0.94214-0.76311 1.3944-1.1211 0.58129-0.46017 0.82236-0.74905 0.82236-0.98558 0-0.46311-0.18209-0.41926-0.69781 0.16808-0.24277 0.2765-0.49078 0.5125-0.55113 0.52443-0.0604 0.01182-0.39935 0.1652-0.75332 0.34046-0.69401 0.34373-3.2175 1.2067-3.5287 1.2067-0.10439 0-0.18981 0.09291-0.18981 0.20642 0 0.31145-0.57659 0.65169-1.1045 0.65169-0.51332 0-0.58062 0.17003-0.30592 0.77292 0.15395 0.33789 0.2166 0.35497 1.1502 0.31375 0.85736-0.03784 1.047-0.09814 1.4407-0.45787zm-6.1994-0.27806 0.34421-0.50539-0.48683-0.53051c-0.26776-0.29177-0.52928-0.58566-0.58117-0.65306-0.0519-0.0674-0.20645 0.04848-0.34345 0.25762-0.31098 0.47461-0.0885 0.82235 0.31685 0.4953 0.23533-0.18986 0.23627-0.18204 0.0164 0.1375-0.2147 0.31208-0.21489 0.37686-2e-3 0.82237 0.12684 0.26598 0.26696 0.48316 0.31138 0.48262 0.0444 0 0.23567-0.22841 0.42499-0.50638zm1.0004-0.21948c-0.33467-0.21189-0.48478-0.15068-0.75568 0.30786l-0.25939 0.4391 0.60773-0.31003c0.459-0.23416 0.55869-0.3411 0.40734-0.43693zm42.204 0.61821c0-0.0598-0.12872-0.18899-0.28603-0.28723-0.23268-0.14527-0.28604-0.14291-0.28604 0.01351 0 0.10557 0.0429 0.23481 0.0954 0.28725 0.13032 0.1304 0.47672 0.12061 0.47672-0.01351zm-41.046-1.0355c0-0.17919-0.15177-0.17919-0.42905 0-0.17348 0.11216-0.15296 0.13902 0.10726 0.14088 0.17698 0.0014 0.32179-0.06216 0.32179-0.14088zm2.5702-0.28046c0.11571-0.07314 0.17538-0.16808 0.13259-0.21086-0.0428-0.04274-0.20183 0.0152-0.35341 0.13074-0.30153 0.22812-0.11831 0.29464 0.22083 0.08024zm-1.569-0.13328c0-0.07027-0.0965-0.1647-0.21453-0.21003-0.218-0.08362-0.2929 0.06875-0.11917 0.2424 0.13669 0.13666 0.3337 0.11757 0.3337-0.03243zm-0.64358-0.15828c-0.0486-0.07872-0.19722-0.14206-0.33024-0.14088-0.20841 0.0017-0.21219 0.02128-0.0273 0.14088 0.28008 0.181 0.46941 0.181 0.35755 0zm4.4664-1.439c1.0931-0.59993 1.822-0.7149 0.85007-0.13412-0.37383 0.22341-0.49091 0.36184-0.36948 0.43688 0.1999 0.12348 0.65017-0.02314 1.4481-0.47154 0.50924-0.28622 0.54121-0.34488 0.54121-0.99294 0-0.67073-0.33388-1.2608-0.71338-1.2608-0.33951 0-2.8621 0.88434-2.8621 1.0034 0 0.07247-0.0925 0.09628-0.2055 0.05304-0.11302-0.04341-0.17049-0.17008-0.12772-0.28157 0.13364-0.34823-0.21567-0.22272-0.77476 0.2784-0.2952 0.2646-0.7459 0.58802-1.0015 0.71877-0.54071 0.27649-0.56663 0.3799-0.1824 0.72762 0.23503 0.2127 0.42699 0.23922 1.1442 0.15811 0.72485-0.0821 0.86173-0.06233 0.86173 0.12416 0 0.33579 0.23628 0.2748 1.3915-0.35924zm-6.5402 0.05169c0-0.2876-0.0413-0.3448-0.16201-0.22414-0.0891 0.08919-0.12331 0.26287-0.076 0.38615 0.13093 0.34118 0.23801 0.26829 0.23801-0.16199zm10.834-0.04139c0.25565-0.15591 0.46481-0.35002 0.46481-0.43142 0-0.16368-1.0718 0.3401-1.2144 0.57083-0.14716 0.23812 0.25222 0.16385 0.74958-0.13936zm-12.193-0.50212c0.0869-0.40792 0.0803-0.41539-0.13291-0.15152-0.12334 0.1527-0.22427 0.40693-0.22427 0.56493 0 0.40184 0.24359 0.11993 0.35717-0.41348zm3.2183-0.21113c0-0.13919-0.27604-0.35095-0.34929-0.26799-0.0243 0.02753-0.0905 0.20039-0.14705 0.38412-0.0936 0.30426-0.0761 0.31976 0.19676 0.17375 0.16477-0.08818 0.29957-0.21863 0.29957-0.28988zm-1.8592-0.06655c0-0.03463-0.0644-0.10287-0.14302-0.15152-0.0787-0.04865-0.14302-0.02027-0.14302 0.06301s0.0644 0.15152 0.14302 0.15152c0.0787 0 0.14302-0.02838 0.14302-0.06301zm3.5984-0.65191c0.49869-0.23591 0.98335-0.42899 1.077-0.42905 0.30771 0 0.31476-0.21833 0.0278-0.85929-0.15562-0.3476-0.31055-0.6596-0.34429-0.69334-0.0337-0.03378-0.5808 0.2797-1.2157 0.6965-0.86622 0.5687-1.1308 0.81473-1.0599 0.98571 0.0519 0.12534 0.12681 0.34049 0.16638 0.47814 0.0989 0.34395 0.30036 0.31728 1.3487-0.17867zm6.1269 0.0084c0-0.14307-0.0965-0.34019-0.21452-0.43811-0.2421-0.20093-0.27928-0.04155-0.1248 0.53471 0.0977 0.36461 0.33933 0.29584 0.33933-0.09662zm-10.238-0.24382c0.0753-0.19628 0.0544-0.20514-0.12772-0.05405-0.24817 0.20596-0.274 0.28877-0.0901 0.28877 0.0702 0 0.16826-0.10557 0.2178-0.23476zm7.3775-0.91375 0.64358-0.17373-0.64358-0.19806c-0.48473-0.14916-2.1453-0.23252-2.1453-0.1076 0 0.01014 0.13205 0.31693 0.29345 0.68179l0.29344 0.66338 0.4574-0.34598c0.25157-0.19029 0.74701-0.42417 1.101-0.51973zm33.279-0.04573c-0.11601-0.17711-0.71664-0.66584-1.3347-1.086l-1.1238-0.76402 1.2872 1.3121c0.87564 0.8926 1.3024 1.2398 1.3348 1.0861 0.0262-0.12432-0.0473-0.371-0.16341-0.54811zm-32.182-0.61678c-0.0423-0.04223-0.1524-0.03024-0.24469 0.02686-0.12441 0.07686-0.11764 0.1348 0.0262 0.22427 0.1907 0.11841 0.37556-0.09392 0.21845-0.25108zm-4.4436-1.1567c0.15556-0.13767 0.35733-0.26522 0.44838-0.28348 0.091-0.01824 0.37814-0.16807 0.638-0.33287 0.39814-0.25252 0.41621-0.28461 0.11491-0.2041-0.41028 0.10963-1.7212 0.75216-1.9236 0.94277-0.26293 0.24765 0.43845 0.12888 0.72231-0.1223zm4.2762-0.17877c-0.0486-0.07872-0.19722-0.14206-0.33023-0.14088-0.20842 0.0017-0.21219 0.02128-0.0273 0.14088 0.28008 0.181 0.46941 0.181 0.35755 0zm2.7888 0.08564c0-0.19078-1.0008-0.57934-1.3944-0.54139-0.71795 0.069257-0.55138 0.26542 0.35755 0.42115 0.45229 0.07753 0.87062 0.14916 0.92962 0.15929 0.059 0.01014 0.10726-0.0068 0.10726-0.03902zm-3.0421-0.74412c-0.0475-0.047466-0.17088-0.052534-0.27412-0.011824-0.11409 0.045608-0.0802 0.079561 0.0864 0.086318 0.15076 0.00676 0.23523-0.027534 0.18771-0.075169zm1.755-0.056588c-0.28364-0.18331-0.89989-0.18331-0.7866 0 0.0486 0.078716 0.29375 0.14206 0.54476 0.14088 0.34726-0.00169 0.40507-0.035304 0.24184-0.14088zm20.876-0.13733c0.1399-0.088514-0.15995-0.13294-0.89739-0.13294-0.65849 0-1.0737 0.05473-1.024 0.13514 0.10748 0.1739 1.6457 0.17216 1.9214-0.00169zm-9.7595-0.09223c-0.0475-0.047466-0.17088-0.052534-0.27412-0.011824-0.11409 0.045608-0.0802 0.079561 0.0864 0.086486 0.15076 0.00676 0.23523-0.027534 0.18771-0.075169zm12.91-3.1175c0-0.031588-0.19308-0.12483-0.42906-0.20709-0.49666-0.17313-0.58617-0.075338-0.10726 0.11706 0.36225 0.14561 0.53632 0.17481 0.53632 0.090034zm-25.472-1.4627c0.46049-0.092061 1.1944-0.61633 0.87257-0.62328-0.35579-0.00845-2.0023 0.61341-2.0023 0.7553 0 0.072635 0.16841 0.089865 0.37423 0.038176 0.20583-0.051689 0.54578-0.12821 0.75546-0.17019zm3.2241-0.61167c0.0441-0.071284-0.0487-0.095946-0.20609-0.054899-0.33394 0.087331-0.37615 0.18451-0.0801 0.18451 0.11335 0 0.24216-0.058277 0.28624-0.12973zm-15.926 7.0774c0.15875-0.26909 0.3944-0.57478 0.52365-0.67934s0.0263 0.11554-0.22884 0.48922c-0.53842 0.78858-0.71516 0.90255-0.29481 0.19012z" style="fill:#af2817;stroke-width:.14302"/>
</svg>
